<svg width="1167" height="360" viewBox="0 0 1167 360" fill="none" xmlns="http://www.w3.org/2000/svg">
<g opacity="0.4" clip-path="url(#clip0_202_3065)">
<path d="M672.603 313.376L672.741 331.562C672.752 333.019 672.779 333.933 672.82 334.307C672.832 334.476 672.881 334.642 672.964 334.79C673.047 334.939 673.162 335.068 673.3 335.167C673.756 335.404 674.27 335.504 674.782 335.454H675.18L675.188 336.219L667.907 336.273L667.9 335.509H668.366C668.856 335.543 669.346 335.444 669.785 335.223C669.92 335.138 670.035 335.025 670.122 334.891C670.208 334.757 670.265 334.606 670.287 334.448C670.359 333.496 670.379 332.54 670.348 331.586L670.246 318.116C670.329 317.197 670.191 316.272 669.843 315.418C669.587 315.048 668.964 314.866 667.977 314.872L667.971 314.108C668.772 314.09 669.569 314.006 670.356 313.856C670.999 313.767 671.631 313.606 672.239 313.377L672.603 313.376Z" fill="#1C3554"/>
<path d="M676.931 329.374C676.898 328.406 677.063 327.442 677.416 326.54C677.769 325.638 678.302 324.818 678.983 324.129C680.353 322.769 682.201 322.001 684.131 321.988C686.061 321.975 687.92 322.719 689.308 324.06C689.998 324.737 690.543 325.548 690.91 326.443C691.277 327.338 691.458 328.298 691.441 329.265C691.502 330.266 691.348 331.268 690.989 332.204C690.629 333.14 690.074 333.988 689.359 334.692C687.979 336.004 686.141 336.725 684.237 336.7C683.293 336.727 682.353 336.567 681.47 336.23C680.588 335.893 679.78 335.385 679.094 334.736C678.375 334.046 677.81 333.211 677.437 332.287C677.065 331.363 676.892 330.37 676.931 329.374ZM679.69 329.436C679.708 331.852 680.115 333.542 680.909 334.506C681.312 334.987 681.822 335.367 682.399 335.615C682.975 335.863 683.602 335.974 684.228 335.937C684.86 335.97 685.49 335.852 686.067 335.595C686.644 335.338 687.153 334.947 687.55 334.456C688.313 333.481 688.686 331.785 688.668 329.368C688.649 326.974 688.254 325.271 687.485 324.257C687.091 323.75 686.58 323.348 685.995 323.085C685.409 322.823 684.769 322.708 684.129 322.75C683.491 322.719 682.854 322.843 682.275 323.113C681.695 323.382 681.19 323.789 680.803 324.298C680.044 325.318 679.673 327.031 679.69 329.436Z" fill="#1C3554"/>
<path d="M704.318 323.582C704.649 323.124 705.074 322.742 705.565 322.462C706.056 322.183 706.602 322.013 707.165 321.963C707.39 321.948 707.615 321.977 707.829 322.05C708.042 322.123 708.239 322.237 708.407 322.387C708.543 322.505 708.653 322.65 708.73 322.812C708.807 322.975 708.85 323.151 708.855 323.331C708.861 324.063 708.531 324.431 707.866 324.436C707.661 324.421 707.463 324.35 707.295 324.231C707.128 324.112 706.995 323.949 706.913 323.761C706.665 323.343 706.41 323.133 706.144 323.134C705.864 323.177 705.597 323.277 705.357 323.428C705.118 323.578 704.913 323.777 704.754 324.011C705.322 324.867 705.629 325.87 705.64 326.897C705.655 328.214 705.151 329.483 704.237 330.431C703.291 331.47 701.688 332.037 699.429 332.131C697.08 332.226 695.909 332.711 695.915 333.587C695.918 333.997 696.186 334.283 696.719 334.445C697.8 334.69 698.905 334.815 700.014 334.819C701.435 334.845 702.85 335.005 704.241 335.295C705.038 335.5 705.762 335.928 706.326 336.528C706.891 337.128 707.274 337.875 707.431 338.684C707.589 339.493 707.513 340.329 707.214 341.097C706.915 341.865 706.404 342.532 705.741 343.021C704.217 344.027 702.409 344.515 700.585 344.412C698.854 344.508 697.131 344.106 695.622 343.251C695.069 342.962 694.603 342.53 694.272 342.001C693.941 341.472 693.756 340.864 693.738 340.241C693.708 339.641 693.892 339.05 694.256 338.573C694.44 338.354 694.671 338.18 694.933 338.066C695.195 337.951 695.48 337.899 695.765 337.913C695.93 337.911 696.093 337.938 696.248 337.993C695.615 338.635 695.252 339.494 695.235 340.395C695.242 340.882 695.373 341.358 695.616 341.78C695.86 342.201 696.207 342.553 696.624 342.803C697.869 343.515 699.299 343.838 700.729 343.729C702.061 343.797 703.381 343.447 704.504 342.728C704.919 342.457 705.26 342.086 705.493 341.648C705.727 341.211 705.846 340.721 705.84 340.225C705.877 339.759 705.781 339.293 705.563 338.879C705.346 338.466 705.015 338.123 704.609 337.891C703.234 337.344 701.76 337.085 700.281 337.131C697.898 337.048 696.351 336.766 695.639 336.284C695.315 336.098 695.045 335.831 694.855 335.509C694.666 335.187 694.565 334.821 694.56 334.448C694.549 332.995 695.557 332.073 697.583 331.681C696.633 331.168 695.813 330.445 695.184 329.568C694.648 328.781 694.362 327.85 694.365 326.898C694.354 326.225 694.493 325.558 694.772 324.945C695.051 324.332 695.462 323.789 695.976 323.354C697.031 322.386 698.415 321.856 699.846 321.869C700.67 321.826 701.494 321.956 702.264 322.251C703.034 322.546 703.734 323 704.318 323.582ZM696.865 327.262C696.78 328.381 697.101 329.493 697.769 330.396C698.047 330.706 698.388 330.954 698.77 331.123C699.152 331.292 699.565 331.378 699.982 331.376C700.399 331.374 700.811 331.283 701.191 331.109C701.57 330.936 701.909 330.684 702.184 330.37C702.881 329.367 703.193 328.145 703.063 326.931C703.051 325.292 702.721 324.164 702.074 323.547C701.789 323.257 701.449 323.026 701.074 322.869C700.699 322.712 700.297 322.631 699.89 322.631C699.44 322.608 698.993 322.704 698.592 322.909C698.191 323.113 697.85 323.42 697.605 323.797C697.031 324.857 696.775 326.06 696.865 327.262Z" fill="#1C3554"/>
<path d="M709.913 329.121C709.88 328.154 710.045 327.189 710.399 326.288C710.752 325.386 711.286 324.566 711.968 323.878C713.337 322.517 715.185 321.747 717.115 321.734C719.045 321.721 720.904 322.465 722.292 323.807C722.982 324.484 723.527 325.295 723.894 326.19C724.261 327.085 724.441 328.045 724.425 329.012C724.486 330.014 724.331 331.016 723.97 331.953C723.61 332.889 723.053 333.737 722.337 334.439C720.958 335.752 719.12 336.473 717.217 336.447C716.273 336.475 715.333 336.317 714.45 335.981C713.567 335.645 712.759 335.139 712.072 334.491C711.353 333.8 710.788 332.964 710.416 332.038C710.043 331.113 709.872 330.118 709.913 329.121ZM712.673 329.184C712.691 331.6 713.097 333.291 713.891 334.255C714.317 334.711 714.834 335.073 715.408 335.319C715.981 335.565 716.6 335.69 717.224 335.685C717.848 335.68 718.465 335.546 719.035 335.291C719.605 335.036 720.115 334.666 720.535 334.204C721.298 333.229 721.671 331.533 721.653 329.116C721.633 326.722 721.239 325.019 720.469 324.006C720.052 323.529 719.538 323.148 718.96 322.889C718.383 322.629 717.756 322.496 717.123 322.5C716.49 322.504 715.865 322.644 715.291 322.911C714.717 323.178 714.207 323.565 713.795 324.046C713.028 325.07 712.654 326.783 712.673 329.188V329.184Z" fill="#1C3554"/>
<path d="M731.271 321.19L731.345 330.98C731.356 332.476 731.386 333.419 731.436 333.808C731.451 333.983 731.504 334.154 731.591 334.307C731.678 334.46 731.797 334.592 731.94 334.695C732.411 334.939 732.941 335.042 733.468 334.992H733.833L733.839 335.781L726.278 335.837L726.272 335.048L726.855 335.044C727.409 335.107 727.968 334.978 728.438 334.68C728.675 334.458 728.824 334.159 728.86 333.836C728.899 333.51 728.912 332.564 728.9 330.998L728.859 326.746C728.914 325.734 728.829 324.719 728.606 323.731C728.556 323.58 728.474 323.441 728.367 323.323C728.259 323.206 728.128 323.112 727.982 323.049C727.542 322.94 727.089 322.898 726.637 322.922H726.174L726.167 322.133C727.774 322.001 729.359 321.684 730.893 321.189L731.271 321.19ZM727.904 314.048C727.899 313.812 727.942 313.578 728.03 313.359C728.119 313.14 728.251 312.941 728.418 312.774C728.578 312.602 728.773 312.465 728.989 312.372C729.205 312.279 729.438 312.232 729.673 312.234C729.907 312.228 730.14 312.271 730.356 312.361C730.573 312.451 730.768 312.585 730.929 312.755C731.096 312.92 731.229 313.117 731.319 313.334C731.409 313.551 731.454 313.784 731.452 314.019C731.459 314.257 731.418 314.494 731.331 314.716C731.244 314.938 731.114 315.14 730.948 315.311C730.789 315.483 730.597 315.62 730.382 315.712C730.167 315.805 729.935 315.852 729.701 315.851C729.466 315.856 729.232 315.812 729.015 315.722C728.797 315.632 728.6 315.499 728.437 315.329C728.267 315.162 728.133 314.963 728.042 314.743C727.951 314.523 727.906 314.287 727.908 314.048H727.904Z" fill="#1C3554"/>
<path d="M738.729 321.133H739.192C739.406 321.885 739.51 322.664 739.501 323.446C740.16 322.713 740.956 322.115 741.844 321.687C743.093 321.122 744.486 320.955 745.833 321.209C747.18 321.463 748.416 322.125 749.373 323.106C750.718 324.573 751.429 326.512 751.351 328.501C751.431 330.514 750.751 332.483 749.447 334.018C748.817 334.749 748.033 335.33 747.15 335.719C746.268 336.108 745.309 336.295 744.345 336.267C743.487 336.276 742.636 336.104 741.848 335.764C741.006 335.392 740.238 334.873 739.581 334.229L739.621 339.561C739.603 340.55 739.642 341.54 739.738 342.525C739.764 342.69 739.826 342.847 739.921 342.984C740.015 343.122 740.14 343.236 740.284 343.319C740.811 343.534 741.382 343.621 741.949 343.572L741.955 344.361L734.618 344.412L734.611 343.623H735.126C735.68 343.685 736.238 343.557 736.709 343.259C736.947 343.037 737.096 342.738 737.131 342.415C737.169 342.09 737.182 341.145 737.17 339.578L737.074 326.823C737.063 325.327 737.036 324.384 736.992 323.995C736.98 323.819 736.93 323.649 736.844 323.496C736.758 323.343 736.64 323.21 736.497 323.108C736.027 322.864 735.496 322.761 734.969 322.811H734.456L734.448 322.022C735.896 321.836 737.327 321.539 738.729 321.133ZM739.574 333.094C740.118 333.779 740.789 334.353 741.549 334.785C742.219 335.157 742.973 335.349 743.738 335.343C744.39 335.332 745.031 335.175 745.614 334.883C746.197 334.591 746.707 334.172 747.106 333.656C748.058 332.539 748.525 330.769 748.506 328.347C748.623 326.657 748.117 324.983 747.082 323.642C746.676 323.158 746.168 322.769 745.594 322.504C745.02 322.238 744.394 322.103 743.762 322.108C742.974 322.113 742.2 322.326 741.52 322.725C740.737 323.199 740.054 323.821 739.508 324.556L739.574 333.094Z" fill="#1C3554"/>
<path d="M754.219 336.07L754.184 331.46L754.853 331.453C755.65 334.11 757.049 335.432 759.05 335.417C759.413 335.441 759.777 335.381 760.114 335.242C760.45 335.103 760.75 334.887 760.989 334.613C761.398 334.128 761.621 333.513 761.619 332.878C761.629 332.547 761.572 332.217 761.451 331.909C761.331 331.6 761.15 331.319 760.919 331.082C760.093 330.393 759.171 329.829 758.182 329.406C757.047 328.914 756.008 328.225 755.113 327.371C754.491 326.711 754.152 325.834 754.17 324.927C754.179 323.955 754.523 323.017 755.144 322.271C755.473 321.851 755.897 321.516 756.381 321.293C756.866 321.07 757.396 320.966 757.929 320.989C758.516 320.977 759.098 321.104 759.628 321.359C760.157 321.614 760.619 321.991 760.976 322.458C761.259 322.076 761.481 321.652 761.634 321.201H762.271L762.303 325.539L761.666 325.544C761.453 324.551 760.988 323.631 760.317 322.87C760.035 322.524 759.679 322.245 759.276 322.054C758.873 321.863 758.432 321.764 757.986 321.765C757.68 321.754 757.375 321.806 757.09 321.917C756.805 322.028 756.545 322.197 756.328 322.412C756.128 322.603 755.97 322.832 755.863 323.087C755.756 323.341 755.702 323.615 755.705 323.891C755.705 324.191 755.769 324.488 755.892 324.762C756.015 325.036 756.194 325.28 756.419 325.48C757.208 326.132 758.098 326.652 759.053 327.02C761.004 327.886 762.199 328.736 762.639 329.568C763.053 330.313 763.283 331.146 763.309 331.998C763.334 332.551 763.242 333.104 763.038 333.62C762.834 334.136 762.523 334.602 762.126 334.989C761.722 335.375 761.246 335.677 760.726 335.878C760.205 336.079 759.65 336.175 759.092 336.161C758.437 336.159 757.79 336.019 757.194 335.749C756.598 335.479 756.066 335.085 755.633 334.593C755.28 335.027 755.027 335.532 754.89 336.073L754.219 336.07Z" fill="#1C3554"/>
<path d="M779.656 321.391L779.725 330.598C779.736 332.129 779.766 333.089 779.816 333.476C779.83 333.651 779.883 333.82 779.972 333.971C780.061 334.122 780.183 334.251 780.329 334.348C780.818 334.58 781.36 334.677 781.899 334.627L781.905 335.416C780.614 335.377 779.326 335.572 778.104 335.992H777.898C777.444 334.97 777.236 333.856 777.291 332.739C776.697 333.732 775.886 334.577 774.917 335.209C774.027 335.764 772.998 336.056 771.948 336.053C771.077 336.077 770.216 335.862 769.458 335.431C768.807 335.084 768.283 334.538 767.963 333.872C767.643 332.978 767.499 332.031 767.539 331.082L767.503 326.299C767.519 325.306 767.483 324.313 767.395 323.324C767.373 323.158 767.312 323 767.217 322.862C767.122 322.724 766.996 322.611 766.849 322.532C766.317 322.324 765.744 322.24 765.175 322.287L765.169 321.498L769.934 321.462L770.008 331.2C769.989 331.903 770.053 332.605 770.196 333.293C770.343 333.766 770.657 334.168 771.078 334.427C771.559 334.752 772.13 334.918 772.711 334.903C773.622 334.884 774.503 334.574 775.225 334.018C775.918 333.555 776.477 332.918 776.848 332.172C777.173 331.286 777.315 330.342 777.265 329.399L777.241 326.228C777.23 324.697 777.206 323.765 777.168 323.433C777.13 323.101 776.972 322.795 776.724 322.571C776.246 322.27 775.679 322.144 775.118 322.214H774.754L774.749 321.425L779.656 321.391Z" fill="#1C3554"/>
<path d="M787.605 320.765H787.776C788.145 321.702 788.321 322.703 788.295 323.709C788.956 322.808 789.792 322.051 790.752 321.481C791.62 320.986 792.602 320.724 793.601 320.721C794.6 320.667 795.589 320.936 796.422 321.489C797.189 322.073 797.729 322.905 797.95 323.843C798.685 322.895 799.585 322.087 800.606 321.457C801.447 320.944 802.409 320.664 803.393 320.647C804.368 320.609 805.332 320.864 806.16 321.381C806.819 321.755 807.314 322.363 807.544 323.085C807.746 324.106 807.834 325.146 807.807 326.186L807.839 330.404C807.821 331.399 807.86 332.395 807.956 333.385C807.981 333.55 808.044 333.707 808.14 333.844C808.237 333.98 808.363 334.092 808.51 334.171C809.048 334.38 809.626 334.463 810.201 334.414L810.207 335.203L803.198 335.257L803.193 334.468C803.728 334.501 804.263 334.412 804.758 334.207C804.902 334.132 805.027 334.024 805.123 333.892C805.218 333.76 805.282 333.609 805.31 333.448C805.401 332.443 805.428 331.432 805.39 330.423L805.355 325.742C805.367 325.024 805.306 324.306 805.173 323.6C805.046 323.1 804.74 322.663 804.314 322.371C803.79 322.013 803.163 321.837 802.529 321.87C801.724 321.896 800.946 322.166 800.297 322.642C799.427 323.277 798.671 324.053 798.059 324.939L798.102 330.478C798.113 331.974 798.139 332.914 798.182 333.299C798.195 333.473 798.245 333.643 798.329 333.796C798.413 333.949 798.529 334.083 798.67 334.187C799.128 334.438 799.651 334.545 800.171 334.493L800.179 335.282L793.388 335.333L793.382 334.544C793.928 334.578 794.474 334.492 794.983 334.293C795.127 334.22 795.252 334.115 795.349 333.986C795.446 333.858 795.513 333.709 795.544 333.551C795.644 332.537 795.675 331.517 795.635 330.498L795.605 326.607C795.62 325.71 795.564 324.813 795.439 323.924C795.33 323.357 795.011 322.852 794.547 322.508C794.019 322.107 793.369 321.903 792.707 321.931C791.934 321.957 791.184 322.199 790.543 322.632C789.693 323.203 788.938 323.903 788.305 324.706L788.349 330.553C788.36 332.096 788.391 333.056 788.44 333.434C788.456 333.606 788.511 333.773 788.601 333.92C788.691 334.068 788.814 334.193 788.96 334.287C789.459 334.519 790.01 334.615 790.557 334.566L790.563 335.355L783.689 335.406L783.683 334.617C784.224 334.651 784.765 334.562 785.267 334.357C785.409 334.282 785.533 334.176 785.629 334.046C785.724 333.916 785.789 333.766 785.818 333.608C785.909 332.598 785.936 331.585 785.898 330.572L785.866 326.372C785.855 324.771 785.822 323.79 785.767 323.431C785.747 323.264 785.688 323.103 785.594 322.963C785.501 322.822 785.376 322.705 785.229 322.621C784.713 322.401 784.15 322.311 783.591 322.359L783.585 321.57C784.95 321.449 786.298 321.179 787.605 320.765Z" fill="#1C3554"/>
<path d="M797.423 304.79H764.343V271.711C773.116 271.711 781.53 275.196 787.733 281.4C793.937 287.603 797.423 296.017 797.423 304.79Z" fill="#1C3554"/>
<path d="M697.223 304.79H680.683V288.25C680.684 283.864 682.426 279.657 685.528 276.555C688.63 273.453 692.837 271.711 697.223 271.711C699.396 271.711 701.546 272.139 703.553 272.97C705.56 273.801 707.383 275.019 708.919 276.555C710.455 278.091 711.673 279.914 712.505 281.921C713.336 283.927 713.764 286.078 713.764 288.25C713.764 292.637 712.021 296.844 708.919 299.946C705.817 303.048 701.61 304.79 697.223 304.79Z" fill="#1C3554"/>
<path d="M755.649 304.79H722.568L722.457 271.6L745.154 294.295L755.649 304.79Z" fill="#1C3554"/>
</g>
<g opacity="0.4" clip-path="url(#clip1_202_3065)">
<path d="M335 301.498V308.718C337.467 308.717 339.911 309.202 342.19 310.145C344.47 311.089 346.541 312.473 348.286 314.217C350.03 315.962 351.413 318.033 352.356 320.312C353.299 322.591 353.783 325.033 353.782 327.5H360.997C360.99 320.607 358.249 313.998 353.375 309.123C348.502 304.248 341.893 301.506 335 301.498V301.498Z" fill="#1C3554"/>
<path d="M371.082 288.5H359.648C365.432 292.166 370.333 297.066 374 302.85V291.416C373.999 290.642 373.692 289.901 373.145 289.354C372.597 288.807 371.856 288.5 371.082 288.5Z" fill="#1C3554"/>
<path d="M342.184 288.5H335V295.001C343.617 295.01 351.878 298.437 357.971 304.529C364.064 310.622 367.491 318.883 367.5 327.5H374V320.316C372.53 312.42 368.704 305.154 363.025 299.475C357.346 293.796 350.08 289.97 342.184 288.5Z" fill="#1C3554"/>
<path d="M391.684 292.793H387.105V315.875H391.684V292.793Z" fill="#1C3554"/>
<path d="M408.522 302.793C407.76 302.1 406.868 301.566 405.897 301.22C403.812 300.488 401.54 300.488 399.455 301.22C398.484 301.565 397.591 302.1 396.829 302.793C396.081 303.483 395.483 304.319 395.074 305.25C394.65 306.266 394.432 307.356 394.432 308.456C394.432 309.557 394.65 310.646 395.074 311.662C395.482 312.596 396.079 313.434 396.829 314.125C397.59 314.819 398.482 315.353 399.453 315.697C401.538 316.431 403.81 316.431 405.895 315.697C406.866 315.353 407.759 314.819 408.52 314.125C409.269 313.434 409.867 312.595 410.275 311.662C410.699 310.646 410.917 309.557 410.917 308.456C410.917 307.356 410.699 306.266 410.275 305.25C409.866 304.32 409.269 303.483 408.522 302.793ZM405.378 311.174C404.636 311.842 403.674 312.212 402.675 312.212C401.677 312.212 400.715 311.842 399.973 311.174C399.35 310.405 399.01 309.445 399.01 308.455C399.01 307.464 399.35 306.504 399.973 305.735C400.715 305.067 401.677 304.697 402.675 304.697C403.674 304.697 404.636 305.067 405.378 305.735C406.001 306.504 406.341 307.464 406.341 308.455C406.341 309.445 406.001 310.405 405.378 311.174Z" fill="#1C3554"/>
<path d="M424.963 302.991H424.905C424.694 302.694 424.448 302.423 424.173 302.183C423.839 301.888 423.47 301.636 423.074 301.434C422.073 300.92 420.962 300.658 419.837 300.671C418.852 300.654 417.877 300.879 416.999 301.328C416.18 301.751 415.458 302.339 414.876 303.053C414.283 303.789 413.828 304.627 413.533 305.525C413.219 306.451 413.059 307.422 413.06 308.399C413.048 309.448 413.224 310.491 413.579 311.478C413.901 312.379 414.402 313.205 415.053 313.906C415.701 314.593 416.488 315.133 417.361 315.492C418.31 315.879 419.328 316.071 420.353 316.056C421.111 316.043 421.86 315.894 422.565 315.614C423.356 315.314 424.041 314.789 424.535 314.102H424.596V315.539C424.614 316.018 424.535 316.496 424.364 316.945C424.194 317.393 423.935 317.802 423.604 318.149C423.184 318.521 422.692 318.804 422.159 318.98C421.627 319.157 421.064 319.223 420.505 319.175C419.618 319.185 418.739 319.008 417.925 318.656C417.116 318.294 416.36 317.822 415.681 317.252L413.147 321.034C414.183 321.868 415.393 322.458 416.689 322.759C417.97 323.054 419.282 323.202 420.597 323.202C423.487 323.202 425.639 322.474 427.053 321.019C428.468 319.563 429.175 317.431 429.176 314.623V301.037H424.968L424.963 302.991ZM424.688 309.754C424.507 310.188 424.242 310.583 423.909 310.915C423.569 311.253 423.171 311.527 422.734 311.723C422.28 311.925 421.788 312.029 421.291 312.029C420.794 312.029 420.303 311.925 419.849 311.723C419.417 311.524 419.024 311.25 418.688 310.915C418.353 310.58 418.087 310.183 417.906 309.745C417.724 309.308 417.631 308.839 417.631 308.365C417.631 307.892 417.724 307.423 417.906 306.985C418.087 306.548 418.353 306.151 418.688 305.816C419.024 305.48 419.417 305.206 419.849 305.006C420.303 304.805 420.794 304.701 421.291 304.701C421.788 304.701 422.279 304.805 422.734 305.006C423.171 305.203 423.569 305.477 423.909 305.816C424.413 306.322 424.755 306.966 424.894 307.667C425.033 308.368 424.961 309.094 424.688 309.754Z" fill="#1C3554"/>
<path d="M446.38 302.793C445.617 302.1 444.725 301.566 443.754 301.22C441.669 300.488 439.397 300.488 437.312 301.22C436.341 301.565 435.449 302.1 434.686 302.793C433.938 303.483 433.341 304.319 432.931 305.25C432.508 306.266 432.29 307.356 432.29 308.456C432.29 309.557 432.508 310.646 432.931 311.662C433.339 312.596 433.937 313.434 434.686 314.125C435.448 314.819 436.341 315.354 437.312 315.697C439.397 316.431 441.67 316.431 443.754 315.697C444.726 315.353 445.618 314.819 446.38 314.125C447.129 313.434 447.727 312.596 448.135 311.662C448.558 310.646 448.776 309.557 448.776 308.456C448.776 307.356 448.558 306.266 448.135 305.25C447.725 304.319 447.128 303.483 446.38 302.793ZM443.235 311.174C442.494 311.842 441.531 312.212 440.533 312.212C439.535 312.212 438.572 311.842 437.831 311.174C437.207 310.405 436.867 309.445 436.867 308.455C436.867 307.464 437.207 306.504 437.831 305.735C438.572 305.067 439.535 304.697 440.533 304.697C441.531 304.697 442.494 305.067 443.235 305.735C443.858 306.504 444.199 307.464 444.199 308.455C444.199 309.445 443.858 310.405 443.235 311.174Z" fill="#1C3554"/>
<path d="M454.851 301.14H452.395V315.875H454.851V301.14Z" fill="#1C3554"/>
<path d="M453.624 293.584C453.386 293.58 453.149 293.625 452.929 293.717C452.71 293.809 452.512 293.946 452.348 294.119C452.098 294.371 451.929 294.691 451.861 295.039C451.792 295.387 451.829 295.747 451.965 296.075C452.102 296.402 452.332 296.681 452.627 296.878C452.922 297.075 453.269 297.18 453.623 297.18C453.978 297.18 454.324 297.075 454.62 296.878C454.915 296.681 455.145 296.402 455.281 296.075C455.418 295.747 455.454 295.387 455.386 295.039C455.318 294.691 455.148 294.371 454.898 294.119C454.735 293.946 454.537 293.809 454.318 293.717C454.098 293.625 453.862 293.58 453.624 293.584Z" fill="#1C3554"/>
<path d="M473.018 302.971C472.327 302.266 471.496 301.713 470.578 301.348C469.571 300.952 468.497 300.754 467.414 300.767C466.395 300.755 465.386 300.982 464.47 301.429C463.567 301.877 462.768 302.51 462.124 303.285H462.058V301.14H459.605V323.054H462.058V313.263H462.12C462.642 314.161 463.402 314.897 464.316 315.39C465.377 315.984 466.578 316.283 467.794 316.256C468.789 316.262 469.776 316.064 470.691 315.673C471.575 315.298 472.373 314.746 473.036 314.051C473.71 313.341 474.239 312.508 474.595 311.596C475.351 309.608 475.351 307.412 474.595 305.424C474.236 304.511 473.7 303.677 473.018 302.971ZM472.152 310.668C471.923 311.31 471.565 311.898 471.099 312.395C470.634 312.893 470.072 313.29 469.447 313.562C468.066 314.127 466.518 314.127 465.137 313.562C464.511 313.29 463.948 312.893 463.482 312.395C463.017 311.896 462.658 311.308 462.429 310.665C461.947 309.269 461.947 307.751 462.429 306.355C462.658 305.712 463.017 305.124 463.482 304.626C463.948 304.127 464.511 303.73 465.137 303.459C466.518 302.893 468.066 302.893 469.447 303.459C470.073 303.73 470.636 304.127 471.102 304.626C471.567 305.124 471.926 305.712 472.155 306.355C472.637 307.751 472.637 309.269 472.155 310.665L472.152 310.668Z" fill="#1C3554"/>
<path d="M487.533 308.513C487.067 308.164 486.547 307.893 485.994 307.711C485.386 307.506 484.766 307.342 484.136 307.222C483.664 307.141 483.196 307.036 482.735 306.908C482.324 306.796 481.923 306.649 481.538 306.467C481.23 306.327 480.951 306.129 480.717 305.884C480.518 305.664 480.411 305.377 480.419 305.081C480.414 304.762 480.507 304.449 480.686 304.184C480.863 303.923 481.094 303.703 481.363 303.539C481.651 303.364 481.965 303.237 482.293 303.161C482.628 303.078 482.973 303.035 483.319 303.035C483.977 303.014 484.628 303.184 485.192 303.523C485.702 303.844 486.128 304.281 486.436 304.798L488.482 303.444C488.029 302.549 487.293 301.83 486.388 301.397C485.476 300.973 484.481 300.758 483.476 300.768C482.794 300.766 482.116 300.861 481.461 301.051C480.834 301.23 480.238 301.507 479.697 301.872C479.18 302.221 478.749 302.684 478.438 303.226C478.116 303.802 477.953 304.454 477.966 305.114C477.94 305.76 478.087 306.402 478.391 306.973C478.668 307.45 479.055 307.855 479.52 308.153C480.033 308.476 480.589 308.726 481.172 308.893C481.802 309.082 482.463 309.25 483.156 309.397C483.555 309.481 483.944 309.575 484.321 309.68C484.674 309.775 485.014 309.918 485.328 310.105C485.606 310.27 485.847 310.489 486.037 310.75C486.226 311.04 486.32 311.381 486.305 311.726C486.316 312.089 486.217 312.447 486.021 312.753C485.826 313.043 485.568 313.285 485.266 313.461C484.939 313.656 484.583 313.794 484.211 313.871C483.833 313.954 483.448 313.997 483.061 313.998C482.296 314.027 481.538 313.842 480.873 313.462C480.262 313.073 479.723 312.579 479.283 312.003L477.333 313.514C477.937 314.452 478.794 315.199 479.805 315.67C480.841 316.081 481.949 316.279 483.063 316.253C483.789 316.253 484.513 316.169 485.219 316.001C485.89 315.846 486.53 315.574 487.108 315.199C487.66 314.832 488.118 314.339 488.442 313.762C488.795 313.106 488.969 312.369 488.947 311.625C488.967 310.985 488.838 310.349 488.57 309.768C488.325 309.276 487.971 308.846 487.533 308.513Z" fill="#1C3554"/>
<path d="M505.227 312.38V301.14H502.771V308.324C502.779 309.099 502.689 309.871 502.503 310.623C502.346 311.268 502.067 311.877 501.682 312.417C501.316 312.92 500.828 313.321 500.265 313.582C499.616 313.87 498.912 314.01 498.203 313.993C497.723 314.031 497.241 313.954 496.797 313.768C496.353 313.582 495.961 313.292 495.652 312.922C495.062 312.064 494.774 311.034 494.831 309.994V301.14H492.375V310.239C492.368 311.064 492.479 311.886 492.706 312.679C492.903 313.382 493.254 314.033 493.732 314.585C494.211 315.124 494.808 315.546 495.477 315.816C496.274 316.128 497.125 316.278 497.98 316.258C498.555 316.262 499.128 316.183 499.681 316.021C500.179 315.876 500.655 315.664 501.097 315.392C501.499 315.144 501.864 314.842 502.183 314.495C502.47 314.185 502.709 313.835 502.892 313.455H502.955C502.955 313.876 502.965 314.286 502.986 314.686C503.008 315.087 503.018 315.486 503.017 315.883H505.348C505.348 315.399 505.327 314.864 505.284 314.277C505.242 313.69 505.223 313.058 505.227 312.38Z" fill="#1C3554"/>
<path d="M531.769 304.368C531.605 303.655 531.282 302.988 530.824 302.418C530.362 301.866 529.766 301.442 529.093 301.186C528.245 300.88 527.348 300.736 526.448 300.761C525.47 300.719 524.503 300.977 523.677 301.501C522.911 302.051 522.268 302.753 521.788 303.564C521.663 303.312 521.5 303.023 521.3 302.698C521.077 302.347 520.795 302.038 520.466 301.785C520.061 301.477 519.611 301.235 519.131 301.066C518.487 300.85 517.81 300.748 517.131 300.767C516.556 300.762 515.983 300.842 515.431 301.004C514.933 301.149 514.456 301.36 514.014 301.633C513.613 301.88 513.247 302.182 512.928 302.53C512.642 302.839 512.403 303.189 512.22 303.569H512.156C512.156 303.149 512.146 302.74 512.126 302.338C512.105 301.935 512.094 301.54 512.094 301.141H509.764C509.764 301.625 509.785 302.16 509.827 302.747C509.868 303.334 509.889 303.964 509.889 304.637V315.876H512.347V308.698C512.34 307.923 512.43 307.15 512.615 306.398C512.772 305.753 513.051 305.144 513.436 304.604C513.801 304.101 514.289 303.7 514.853 303.439C515.501 303.151 516.206 303.011 516.916 303.029C517.336 302.993 517.758 303.069 518.14 303.249C518.521 303.429 518.848 303.707 519.087 304.055C519.615 305.135 519.843 306.336 519.749 307.534V315.878H522.2V307.374C522.193 306.768 522.294 306.166 522.5 305.595C522.682 305.09 522.961 304.625 523.321 304.226C523.661 303.853 524.073 303.553 524.533 303.345C524.998 303.134 525.503 303.027 526.013 303.03C526.619 303.008 527.223 303.126 527.776 303.375C528.212 303.586 528.59 303.9 528.877 304.29C529.154 304.676 529.347 305.115 529.445 305.58C529.55 306.066 529.602 306.562 529.602 307.06V315.876H532.053V306.934C532.062 306.07 531.967 305.209 531.769 304.368Z" fill="#1C3554"/>
</g>
<g opacity="0.7" clip-path="url(#clip2_202_3065)">
<path d="M978.793 177.803C979.552 176.207 979.927 174.456 979.888 172.69C979.975 170.97 979.563 169.262 978.701 167.772C977.938 166.577 976.91 165.574 975.697 164.84C974.477 164.107 973.166 163.539 971.798 163.15C970.406 162.753 969.106 162.357 967.897 161.963C966.829 161.634 965.816 161.149 964.891 160.522C964.503 160.25 964.191 159.884 963.984 159.459C963.776 159.033 963.68 158.562 963.704 158.089C963.686 157.488 963.86 156.896 964.201 156.4C964.537 155.931 964.98 155.547 965.493 155.281C966.025 154.999 966.593 154.79 967.182 154.661C967.751 154.532 968.333 154.465 968.917 154.462C969.96 154.478 970.993 154.671 971.972 155.034C972.975 155.366 973.862 155.977 974.529 156.797L979.844 150.984C978.398 149.686 976.685 148.72 974.826 148.154C972.958 147.589 971.016 147.304 969.064 147.309C967.366 147.306 965.676 147.549 964.047 148.03C962.489 148.471 961.029 149.201 959.74 150.182C958.498 151.143 957.481 152.363 956.76 153.758C955.988 155.299 955.604 157.004 955.642 158.727C955.562 160.387 955.986 162.033 956.858 163.449C957.652 164.623 958.696 165.607 959.915 166.33C961.163 167.069 962.498 167.652 963.888 168.065C965.311 168.496 966.636 168.926 967.862 169.357C968.955 169.719 969.986 170.247 970.918 170.922C971.31 171.209 971.626 171.587 971.838 172.025C972.05 172.462 972.152 172.945 972.134 173.43C972.15 174.013 971.986 174.587 971.664 175.074C971.343 175.543 970.918 175.932 970.423 176.212C969.882 176.522 969.297 176.748 968.688 176.884C966.783 177.33 964.783 177.102 963.027 176.238C961.836 175.678 960.802 174.833 960.014 173.779L954.5 179.839C956.073 181.325 957.932 182.474 959.964 183.218C962.008 183.929 964.159 184.282 966.323 184.262C968.078 184.27 969.824 184.036 971.514 183.566C973.079 183.14 974.547 182.414 975.836 181.43C977.085 180.461 978.096 179.221 978.793 177.803Z" fill="#1C3554"/>
<path d="M982.418 155.05H992.454V183.366H1000.2V155.05H1010.24V148.195H982.418V155.05Z" fill="#1C3554"/>
<path d="M1068.64 152.295C1066.6 150.807 1064.29 149.742 1061.83 149.163C1059.14 148.506 1056.38 148.181 1053.61 148.195H1036.07V169.506C1036.08 170.539 1035.9 171.566 1035.55 172.536C1035.22 173.428 1034.72 174.247 1034.08 174.947C1033.45 175.624 1032.69 176.165 1031.85 176.536C1030.95 176.923 1029.99 177.118 1029.02 177.107C1028.03 177.117 1027.06 176.922 1026.16 176.536C1025.3 176.17 1024.53 175.629 1023.9 174.947C1023.26 174.247 1022.76 173.428 1022.43 172.536C1022.08 171.566 1021.9 170.539 1021.91 169.506V148.195H1014.16V169.804C1014.14 171.765 1014.46 173.715 1015.1 175.567C1015.7 177.273 1016.66 178.831 1017.91 180.138C1019.22 181.476 1020.81 182.511 1022.56 183.172C1024.23 183.796 1025.99 184.149 1027.78 184.216L1027.71 184.265H1054.68C1057.29 184.276 1059.89 183.881 1062.37 183.092C1064.73 182.362 1066.92 181.195 1068.84 179.654C1070.72 178.133 1072.24 176.221 1073.3 174.051C1074.44 171.642 1075.01 168.999 1074.96 166.333C1075.04 163.438 1074.46 160.564 1073.25 157.932C1072.19 155.71 1070.6 153.777 1068.64 152.295ZM1065.71 171.092C1065.09 172.438 1064.16 173.612 1062.98 174.506C1061.76 175.404 1060.36 176.037 1058.88 176.365C1057.2 176.749 1055.48 176.937 1053.76 176.924H1049.63V155.531H1054.32C1055.93 155.524 1057.53 155.739 1059.08 156.17C1060.51 156.554 1061.85 157.202 1063.03 158.081C1064.16 158.939 1065.07 160.046 1065.71 161.316C1066.4 162.752 1066.74 164.332 1066.7 165.925C1066.75 167.699 1066.41 169.463 1065.71 171.092Z" fill="#1C3554"/>
<path d="M1086.7 148.195H1078.95V183.366H1086.7V148.195Z" fill="#1C3554"/>
<path d="M1128.4 173.43C1129.37 170.999 1129.85 168.399 1129.81 165.78C1129.85 163.162 1129.37 160.562 1128.4 158.13C1127.51 155.927 1126.16 153.937 1124.45 152.292C1122.72 150.661 1120.67 149.402 1118.44 148.592C1113.52 146.869 1108.16 146.869 1103.24 148.592C1101 149.402 1098.96 150.661 1097.23 152.292C1095.51 153.937 1094.17 155.927 1093.28 158.13C1092.3 160.562 1091.82 163.162 1091.86 165.78C1091.82 168.399 1092.3 170.998 1093.28 173.43C1094.17 175.633 1095.51 177.623 1097.23 179.268C1098.96 180.9 1101 182.16 1103.24 182.969C1108.16 184.692 1113.52 184.692 1118.44 182.969C1120.67 182.159 1122.72 180.899 1124.45 179.268C1126.16 177.623 1127.51 175.633 1128.4 173.43ZM1121 170.326C1120.52 171.656 1119.76 172.873 1118.79 173.902C1117.82 174.922 1116.64 175.726 1115.34 176.263C1112.45 177.389 1109.24 177.389 1106.35 176.263C1105.04 175.726 1103.87 174.922 1102.89 173.902C1101.92 172.873 1101.17 171.656 1100.68 170.326C1099.66 167.39 1099.66 164.195 1100.68 161.259C1101.16 159.92 1101.92 158.693 1102.89 157.657C1103.87 156.639 1105.04 155.836 1106.35 155.299C1109.24 154.173 1112.45 154.173 1115.34 155.299C1116.64 155.836 1117.82 156.639 1118.79 157.657C1119.77 158.693 1120.52 159.92 1121 161.259C1122.03 164.195 1122.03 167.39 1121 170.326Z" fill="#1C3554"/>
<path d="M954.571 190.664H956.604V196.399H958.172V190.664H960.206V189.275H954.571V190.664Z" fill="#1C3554"/>
<path d="M977.412 189.275L974.333 196.397H976.063L976.657 194.888H979.424L980.037 196.397H981.809L978.71 189.275H977.412ZM977.15 193.567L978.015 191.352L978.891 193.567H977.15Z" fill="#1C3554"/>
<path d="M1002.7 194.226H1002.68L999.648 189.275H997.515V196.399H999.085V191.328H999.105L1002.21 196.399H1004.27V189.275H1002.7V194.226Z" fill="#1C3554"/>
<path d="M1023.05 189.275L1019.97 196.397H1021.7L1022.3 194.888H1025.06L1025.68 196.397H1027.45L1024.35 189.275H1023.05ZM1022.79 193.567L1023.65 191.352L1024.53 193.567H1022.79Z" fill="#1C3554"/>
<path d="M1047.77 191.932H1044.72V189.275H1043.15V196.399H1044.72V193.32H1047.77V196.399H1049.34V189.275H1047.77V191.932Z" fill="#1C3554"/>
<path d="M1086.1 189.275L1083.02 196.397H1084.75L1085.35 194.888H1088.11L1088.73 196.397H1090.5L1087.4 189.275H1086.1ZM1085.84 193.567L1086.7 191.352L1087.58 193.567H1085.84Z" fill="#1C3554"/>
<path d="M1107.75 189.275H1106.18V196.399H1107.75V189.275Z" fill="#1C3554"/>
<path d="M1128.07 193.39C1128.53 193.325 1128.94 193.085 1129.22 192.721C1129.49 192.349 1129.63 191.9 1129.61 191.443C1129.63 191.083 1129.55 190.726 1129.4 190.401C1129.26 190.134 1129.06 189.905 1128.81 189.737C1128.55 189.566 1128.26 189.447 1127.96 189.385C1127.62 189.313 1127.27 189.277 1126.93 189.279H1124.17V196.401H1125.74V193.552H1126.52L1128.01 196.399H1129.89L1128.07 193.39ZM1127.86 191.881C1127.78 191.988 1127.67 192.069 1127.54 192.118C1127.4 192.171 1127.26 192.201 1127.11 192.209C1126.96 192.22 1126.81 192.224 1126.67 192.224H1125.74V190.604H1126.77C1126.91 190.604 1127.06 190.614 1127.2 190.634C1127.34 190.65 1127.47 190.689 1127.59 190.75C1127.71 190.806 1127.8 190.891 1127.87 190.995C1127.95 191.125 1127.99 191.276 1127.98 191.428C1127.99 191.589 1127.95 191.749 1127.86 191.881Z" fill="#1C3554"/>
</g>
<g opacity="0.5" clip-path="url(#clip3_202_3065)">
<path d="M637.2 165.498V172.718C639.667 172.717 642.111 173.202 644.39 174.145C646.67 175.089 648.741 176.473 650.486 178.217C652.23 179.962 653.613 182.033 654.556 184.312C655.499 186.591 655.983 189.033 655.982 191.5H663.197C663.19 184.607 660.449 177.998 655.575 173.123C650.702 168.248 644.093 165.506 637.2 165.498V165.498Z" fill="#1C3554"/>
<path d="M673.282 152.5H661.848C667.632 156.166 672.533 161.066 676.2 166.85V155.416C676.199 154.642 675.892 153.901 675.345 153.354C674.797 152.807 674.056 152.5 673.282 152.5Z" fill="#1C3554"/>
<path d="M644.384 152.5H637.2V159.001C645.817 159.01 654.078 162.437 660.171 168.529C666.264 174.622 669.691 182.883 669.7 191.5H676.2V184.316C674.73 176.42 670.904 169.154 665.225 163.475C659.546 157.796 652.28 153.97 644.384 152.5Z" fill="#1C3554"/>
<path d="M693.884 156.793H689.305V179.875H693.884V156.793Z" fill="#1C3554"/>
<path d="M710.722 166.793C709.96 166.1 709.068 165.566 708.097 165.22C706.012 164.488 703.74 164.488 701.655 165.22C700.684 165.565 699.791 166.1 699.028 166.793C698.281 167.483 697.683 168.319 697.273 169.25C696.85 170.266 696.632 171.356 696.632 172.456C696.632 173.557 696.85 174.646 697.273 175.662C697.682 176.596 698.279 177.434 699.028 178.125C699.79 178.819 700.682 179.353 701.653 179.697C703.738 180.431 706.01 180.431 708.095 179.697C709.066 179.353 709.959 178.819 710.72 178.125C711.469 177.434 712.067 176.595 712.475 175.662C712.899 174.646 713.117 173.557 713.117 172.456C713.117 171.356 712.899 170.266 712.475 169.25C712.066 168.32 711.469 167.483 710.722 166.793ZM707.578 175.174C706.836 175.842 705.873 176.212 704.875 176.212C703.877 176.212 702.915 175.842 702.173 175.174C701.55 174.405 701.21 173.445 701.21 172.455C701.21 171.464 701.55 170.504 702.173 169.735C702.915 169.067 703.877 168.697 704.875 168.697C705.873 168.697 706.836 169.067 707.578 169.735C708.201 170.504 708.541 171.464 708.541 172.455C708.541 173.445 708.201 174.405 707.578 175.174Z" fill="#1C3554"/>
<path d="M727.163 166.991H727.105C726.894 166.694 726.648 166.423 726.373 166.183C726.039 165.888 725.67 165.636 725.274 165.434C724.273 164.92 723.162 164.658 722.037 164.671C721.052 164.654 720.077 164.879 719.199 165.328C718.38 165.751 717.658 166.339 717.076 167.053C716.483 167.789 716.028 168.627 715.733 169.525C715.419 170.451 715.259 171.422 715.26 172.399C715.248 173.448 715.424 174.491 715.779 175.478C716.101 176.379 716.602 177.205 717.253 177.906C717.901 178.593 718.688 179.133 719.561 179.492C720.51 179.879 721.528 180.071 722.553 180.056C723.311 180.043 724.06 179.894 724.765 179.614C725.556 179.314 726.241 178.789 726.735 178.102H726.796V179.539C726.814 180.018 726.735 180.496 726.564 180.945C726.394 181.393 726.135 181.802 725.804 182.149C725.384 182.521 724.892 182.804 724.359 182.98C723.827 183.157 723.264 183.223 722.704 183.175C721.818 183.185 720.939 183.008 720.125 182.656C719.316 182.294 718.56 181.822 717.881 181.252L715.347 185.034C716.383 185.868 717.593 186.458 718.889 186.759C720.17 187.054 721.482 187.202 722.797 187.202C725.687 187.202 727.839 186.474 729.253 185.019C730.668 183.563 731.375 181.431 731.376 178.623V165.037H727.168L727.163 166.991ZM726.888 173.754C726.707 174.188 726.442 174.583 726.109 174.915C725.769 175.253 725.371 175.527 724.934 175.723C724.479 175.925 723.988 176.029 723.491 176.029C722.994 176.029 722.503 175.925 722.049 175.723C721.617 175.524 721.224 175.25 720.888 174.915C720.553 174.58 720.287 174.183 720.106 173.745C719.924 173.308 719.831 172.839 719.831 172.365C719.831 171.892 719.924 171.423 720.106 170.985C720.287 170.548 720.553 170.151 720.888 169.816C721.224 169.48 721.617 169.206 722.049 169.006C722.503 168.805 722.994 168.701 723.491 168.701C723.988 168.701 724.479 168.805 724.934 169.006C725.371 169.203 725.769 169.477 726.109 169.816C726.613 170.322 726.955 170.966 727.094 171.667C727.233 172.368 727.161 173.094 726.888 173.754Z" fill="#1C3554"/>
<path d="M748.58 166.793C747.817 166.1 746.925 165.566 745.954 165.22C743.869 164.488 741.597 164.488 739.512 165.22C738.541 165.565 737.648 166.1 736.886 166.793C736.138 167.483 735.541 168.319 735.131 169.25C734.707 170.266 734.49 171.356 734.49 172.456C734.49 173.557 734.707 174.646 735.131 175.662C735.539 176.596 736.137 177.434 736.886 178.125C737.648 178.819 738.541 179.354 739.512 179.697C741.597 180.431 743.87 180.431 745.954 179.697C746.926 179.353 747.818 178.819 748.58 178.125C749.329 177.434 749.927 176.596 750.335 175.662C750.758 174.646 750.976 173.557 750.976 172.456C750.976 171.356 750.758 170.266 750.335 169.25C749.925 168.319 749.328 167.483 748.58 166.793ZM745.435 175.174C744.694 175.842 743.731 176.212 742.733 176.212C741.735 176.212 740.772 175.842 740.031 175.174C739.407 174.405 739.067 173.445 739.067 172.455C739.067 171.464 739.407 170.504 740.031 169.735C740.772 169.067 741.735 168.697 742.733 168.697C743.731 168.697 744.694 169.067 745.435 169.735C746.058 170.504 746.398 171.464 746.398 172.455C746.398 173.445 746.058 174.405 745.435 175.174Z" fill="#1C3554"/>
<path d="M757.051 165.14H754.595V179.875H757.051V165.14Z" fill="#1C3554"/>
<path d="M755.824 157.584C755.586 157.58 755.349 157.625 755.129 157.717C754.91 157.809 754.712 157.946 754.548 158.119C754.298 158.371 754.129 158.691 754.061 159.039C753.992 159.387 754.029 159.747 754.165 160.075C754.302 160.402 754.532 160.681 754.827 160.878C755.122 161.075 755.469 161.18 755.823 161.18C756.178 161.18 756.524 161.075 756.819 160.878C757.115 160.681 757.345 160.402 757.481 160.075C757.617 159.747 757.654 159.387 757.586 159.039C757.518 158.691 757.348 158.371 757.098 158.119C756.935 157.946 756.737 157.809 756.518 157.717C756.298 157.625 756.062 157.58 755.824 157.584Z" fill="#1C3554"/>
<path d="M775.218 166.971C774.527 166.266 773.696 165.713 772.778 165.348C771.771 164.952 770.697 164.754 769.614 164.767C768.594 164.755 767.586 164.982 766.67 165.429C765.767 165.877 764.968 166.51 764.324 167.285H764.258V165.14H761.805V187.054H764.258V177.263H764.32C764.842 178.161 765.602 178.897 766.516 179.39C767.577 179.984 768.778 180.283 769.994 180.256C770.989 180.262 771.976 180.064 772.891 179.673C773.775 179.298 774.573 178.746 775.236 178.051C775.91 177.341 776.439 176.508 776.795 175.596C777.551 173.608 777.551 171.412 776.795 169.424C776.436 168.511 775.9 167.677 775.218 166.971ZM774.352 174.668C774.123 175.31 773.765 175.898 773.299 176.395C772.834 176.893 772.272 177.29 771.647 177.562C770.266 178.127 768.718 178.127 767.337 177.562C766.711 177.29 766.148 176.893 765.682 176.395C765.217 175.896 764.858 175.308 764.629 174.665C764.147 173.269 764.147 171.751 764.629 170.355C764.858 169.712 765.217 169.124 765.682 168.626C766.148 168.127 766.711 167.73 767.337 167.459C768.718 166.893 770.266 166.893 771.647 167.459C772.273 167.73 772.836 168.127 773.302 168.626C773.767 169.124 774.126 169.712 774.355 170.355C774.837 171.751 774.837 173.269 774.355 174.665L774.352 174.668Z" fill="#1C3554"/>
<path d="M789.733 172.513C789.267 172.164 788.747 171.893 788.193 171.711C787.586 171.506 786.965 171.342 786.336 171.222C785.864 171.141 785.396 171.036 784.935 170.908C784.524 170.796 784.123 170.649 783.738 170.467C783.43 170.327 783.151 170.129 782.917 169.884C782.718 169.664 782.611 169.377 782.619 169.081C782.614 168.762 782.707 168.449 782.886 168.184C783.063 167.923 783.294 167.703 783.563 167.539C783.851 167.364 784.165 167.237 784.493 167.161C784.828 167.078 785.173 167.035 785.519 167.035C786.177 167.014 786.828 167.184 787.392 167.523C787.901 167.844 788.328 168.281 788.636 168.798L790.682 167.444C790.229 166.549 789.492 165.83 788.588 165.397C787.676 164.973 786.681 164.758 785.676 164.768C784.994 164.766 784.316 164.861 783.661 165.051C783.034 165.23 782.438 165.507 781.897 165.872C781.38 166.221 780.949 166.684 780.638 167.226C780.316 167.802 780.153 168.454 780.166 169.114C780.14 169.76 780.287 170.402 780.591 170.973C780.868 171.45 781.255 171.855 781.719 172.153C782.233 172.476 782.789 172.726 783.372 172.893C784.002 173.082 784.663 173.25 785.356 173.397C785.755 173.481 786.144 173.575 786.521 173.68C786.874 173.775 787.213 173.918 787.528 174.105C787.806 174.27 788.047 174.489 788.237 174.75C788.426 175.04 788.519 175.381 788.504 175.726C788.516 176.089 788.417 176.447 788.221 176.753C788.026 177.043 787.768 177.285 787.466 177.461C787.139 177.656 786.783 177.794 786.411 177.871C786.033 177.954 785.648 177.997 785.261 177.998C784.496 178.027 783.738 177.842 783.073 177.462C782.462 177.073 781.923 176.579 781.483 176.003L779.533 177.514C780.137 178.452 780.994 179.199 782.005 179.67C783.041 180.081 784.149 180.279 785.263 180.253C785.989 180.253 786.712 180.169 787.419 180.001C788.09 179.846 788.73 179.574 789.308 179.199C789.86 178.832 790.318 178.339 790.642 177.762C790.995 177.106 791.169 176.369 791.147 175.625C791.167 174.985 791.038 174.349 790.77 173.768C790.525 173.276 790.171 172.846 789.733 172.513Z" fill="#1C3554"/>
<path d="M807.427 176.38V165.14H804.971V172.324C804.979 173.099 804.889 173.871 804.703 174.623C804.546 175.268 804.267 175.877 803.882 176.417C803.516 176.92 803.028 177.321 802.465 177.582C801.816 177.87 801.112 178.01 800.403 177.993C799.923 178.031 799.441 177.954 798.997 177.768C798.553 177.582 798.161 177.292 797.852 176.922C797.262 176.064 796.974 175.034 797.031 173.994V165.14H794.575V174.239C794.568 175.064 794.679 175.886 794.906 176.679C795.103 177.382 795.454 178.033 795.932 178.585C796.411 179.124 797.008 179.546 797.677 179.816C798.474 180.128 799.325 180.278 800.18 180.258C800.755 180.262 801.328 180.183 801.881 180.021C802.379 179.876 802.855 179.664 803.297 179.392C803.699 179.144 804.064 178.842 804.383 178.495C804.67 178.185 804.909 177.835 805.092 177.455H805.155C805.155 177.876 805.165 178.286 805.186 178.686C805.208 179.087 805.218 179.486 805.217 179.883H807.548C807.548 179.399 807.527 178.864 807.484 178.277C807.442 177.69 807.423 177.058 807.427 176.38Z" fill="#1C3554"/>
<path d="M833.969 168.368C833.805 167.655 833.482 166.988 833.024 166.418C832.562 165.866 831.966 165.442 831.293 165.186C830.445 164.88 829.548 164.736 828.648 164.761C827.67 164.719 826.703 164.977 825.877 165.501C825.111 166.051 824.468 166.753 823.988 167.564C823.863 167.312 823.7 167.023 823.5 166.698C823.277 166.347 822.995 166.038 822.666 165.785C822.261 165.477 821.811 165.235 821.331 165.066C820.687 164.85 820.01 164.748 819.331 164.767C818.756 164.762 818.183 164.842 817.631 165.004C817.133 165.149 816.656 165.36 816.214 165.633C815.813 165.88 815.447 166.182 815.128 166.53C814.842 166.839 814.603 167.189 814.42 167.569H814.356C814.356 167.149 814.346 166.74 814.326 166.338C814.305 165.935 814.294 165.54 814.294 165.141H811.964C811.964 165.625 811.985 166.16 812.027 166.747C812.068 167.334 812.089 167.964 812.089 168.637V179.876H814.547V172.698C814.54 171.923 814.63 171.15 814.815 170.398C814.972 169.753 815.251 169.144 815.636 168.604C816.001 168.101 816.489 167.7 817.053 167.439C817.701 167.151 818.406 167.011 819.115 167.029C819.536 166.993 819.958 167.069 820.34 167.249C820.721 167.429 821.048 167.707 821.287 168.055C821.814 169.135 822.043 170.336 821.949 171.534V179.878H824.4V171.374C824.393 170.768 824.494 170.166 824.7 169.595C824.882 169.09 825.161 168.625 825.521 168.226C825.861 167.853 826.273 167.553 826.733 167.345C827.198 167.134 827.702 167.027 828.213 167.03C828.819 167.008 829.423 167.126 829.976 167.375C830.412 167.586 830.79 167.9 831.077 168.29C831.354 168.676 831.547 169.115 831.645 169.58C831.75 170.066 831.802 170.562 831.802 171.06V179.876H834.253V170.934C834.262 170.07 834.167 169.209 833.969 168.368Z" fill="#1C3554"/>
</g>
<g clip-path="url(#clip4_202_3065)">
<path d="M363.603 177.376L363.741 195.562C363.752 197.019 363.779 197.933 363.82 198.307C363.832 198.476 363.881 198.642 363.964 198.79C364.047 198.939 364.162 199.068 364.3 199.167C364.756 199.404 365.27 199.504 365.782 199.454H366.18L366.188 200.219L358.907 200.273L358.9 199.509H359.366C359.856 199.543 360.346 199.444 360.785 199.223C360.92 199.138 361.035 199.025 361.122 198.891C361.208 198.757 361.265 198.606 361.287 198.448C361.359 197.496 361.379 196.54 361.348 195.586L361.246 182.116C361.329 181.197 361.191 180.272 360.843 179.418C360.587 179.048 359.964 178.866 358.977 178.872L358.971 178.108C359.772 178.09 360.569 178.006 361.356 177.856C361.999 177.767 362.631 177.606 363.239 177.377L363.603 177.376Z" fill="#1C3554"/>
<path d="M367.931 193.374C367.898 192.406 368.063 191.442 368.416 190.54C368.769 189.638 369.302 188.818 369.983 188.129C371.353 186.769 373.201 186.001 375.131 185.988C377.061 185.975 378.92 186.719 380.308 188.06C380.998 188.737 381.543 189.548 381.91 190.443C382.277 191.338 382.458 192.298 382.441 193.265C382.502 194.266 382.348 195.268 381.989 196.204C381.629 197.14 381.074 197.988 380.359 198.692C378.979 200.004 377.141 200.725 375.237 200.7C374.293 200.727 373.353 200.567 372.47 200.23C371.588 199.893 370.78 199.385 370.094 198.736C369.375 198.046 368.81 197.211 368.437 196.287C368.065 195.363 367.892 194.37 367.931 193.374ZM370.69 193.436C370.708 195.852 371.115 197.542 371.909 198.506C372.312 198.987 372.822 199.367 373.399 199.615C373.975 199.863 374.602 199.974 375.228 199.937C375.86 199.97 376.49 199.852 377.067 199.595C377.644 199.338 378.153 198.947 378.55 198.456C379.313 197.481 379.686 195.785 379.668 193.368C379.649 190.974 379.254 189.271 378.485 188.257C378.091 187.75 377.58 187.348 376.995 187.085C376.409 186.823 375.769 186.708 375.129 186.75C374.491 186.719 373.854 186.843 373.275 187.113C372.695 187.382 372.19 187.789 371.803 188.298C371.044 189.318 370.673 191.031 370.69 193.436Z" fill="#1C3554"/>
<path d="M395.318 187.582C395.649 187.124 396.074 186.742 396.565 186.462C397.056 186.183 397.602 186.013 398.165 185.963C398.39 185.948 398.615 185.977 398.829 186.05C399.042 186.123 399.239 186.237 399.407 186.387C399.543 186.505 399.653 186.65 399.73 186.812C399.807 186.975 399.85 187.151 399.855 187.331C399.861 188.063 399.531 188.431 398.866 188.436C398.661 188.421 398.463 188.35 398.295 188.231C398.128 188.112 397.995 187.949 397.913 187.761C397.665 187.343 397.41 187.133 397.144 187.134C396.864 187.177 396.597 187.277 396.357 187.428C396.118 187.578 395.913 187.777 395.754 188.011C396.322 188.867 396.629 189.87 396.64 190.897C396.655 192.214 396.151 193.483 395.237 194.431C394.291 195.47 392.688 196.037 390.429 196.131C388.08 196.226 386.909 196.711 386.915 197.587C386.918 197.997 387.186 198.283 387.719 198.445C388.8 198.69 389.905 198.815 391.014 198.819C392.435 198.845 393.85 199.005 395.241 199.295C396.038 199.5 396.762 199.928 397.326 200.528C397.891 201.128 398.274 201.875 398.431 202.684C398.589 203.493 398.513 204.329 398.214 205.097C397.915 205.865 397.404 206.532 396.741 207.021C395.217 208.027 393.409 208.515 391.585 208.412C389.854 208.508 388.131 208.106 386.622 207.251C386.069 206.962 385.603 206.53 385.272 206.001C384.941 205.472 384.756 204.864 384.738 204.241C384.708 203.641 384.892 203.05 385.256 202.573C385.44 202.354 385.671 202.18 385.933 202.066C386.195 201.951 386.48 201.899 386.765 201.913C386.93 201.911 387.093 201.938 387.248 201.993C386.615 202.635 386.252 203.494 386.235 204.395C386.242 204.882 386.373 205.358 386.616 205.78C386.86 206.201 387.207 206.553 387.624 206.803C388.869 207.515 390.299 207.838 391.729 207.729C393.061 207.797 394.381 207.447 395.504 206.728C395.919 206.457 396.26 206.086 396.493 205.648C396.727 205.211 396.846 204.721 396.84 204.225C396.877 203.759 396.781 203.293 396.563 202.879C396.346 202.466 396.015 202.123 395.609 201.891C394.234 201.344 392.76 201.085 391.281 201.131C388.898 201.048 387.351 200.766 386.639 200.284C386.315 200.098 386.045 199.831 385.855 199.509C385.666 199.187 385.565 198.821 385.56 198.448C385.549 196.995 386.557 196.073 388.583 195.681C387.633 195.168 386.813 194.445 386.184 193.568C385.648 192.781 385.362 191.85 385.365 190.898C385.354 190.225 385.493 189.558 385.772 188.945C386.051 188.332 386.462 187.789 386.976 187.354C388.031 186.386 389.415 185.856 390.846 185.869C391.67 185.826 392.494 185.956 393.264 186.251C394.034 186.546 394.734 187 395.318 187.582ZM387.865 191.262C387.78 192.381 388.101 193.493 388.769 194.396C389.047 194.706 389.388 194.954 389.77 195.123C390.152 195.292 390.565 195.378 390.982 195.376C391.399 195.374 391.811 195.283 392.191 195.109C392.57 194.936 392.909 194.684 393.184 194.37C393.881 193.367 394.193 192.145 394.063 190.931C394.051 189.292 393.721 188.164 393.074 187.547C392.789 187.257 392.449 187.026 392.074 186.869C391.699 186.712 391.297 186.631 390.89 186.631C390.44 186.608 389.993 186.704 389.592 186.909C389.191 187.113 388.85 187.42 388.605 187.797C388.031 188.857 387.775 190.06 387.865 191.262Z" fill="#1C3554"/>
<path d="M400.913 193.121C400.88 192.154 401.045 191.189 401.399 190.288C401.752 189.386 402.286 188.566 402.968 187.878C404.337 186.517 406.185 185.747 408.115 185.734C410.045 185.721 411.904 186.465 413.292 187.807C413.982 188.484 414.527 189.295 414.894 190.19C415.261 191.085 415.441 192.045 415.425 193.012C415.486 194.014 415.331 195.016 414.97 195.953C414.61 196.889 414.053 197.737 413.337 198.439C411.958 199.752 410.12 200.473 408.217 200.447C407.273 200.475 406.333 200.317 405.45 199.981C404.567 199.645 403.759 199.139 403.072 198.491C402.353 197.8 401.788 196.964 401.416 196.038C401.043 195.113 400.872 194.118 400.913 193.121ZM403.673 193.184C403.691 195.6 404.097 197.291 404.891 198.255C405.317 198.711 405.834 199.073 406.408 199.319C406.981 199.565 407.6 199.69 408.224 199.685C408.848 199.68 409.465 199.546 410.035 199.291C410.605 199.036 411.115 198.666 411.535 198.204C412.298 197.229 412.671 195.533 412.653 193.116C412.633 190.722 412.239 189.019 411.469 188.006C411.052 187.529 410.538 187.148 409.96 186.889C409.383 186.629 408.756 186.496 408.123 186.5C407.49 186.504 406.865 186.644 406.291 186.911C405.717 187.178 405.207 187.565 404.795 188.046C404.028 189.07 403.654 190.783 403.673 193.188V193.184Z" fill="#1C3554"/>
<path d="M422.271 185.19L422.345 194.98C422.356 196.476 422.386 197.419 422.436 197.808C422.451 197.983 422.504 198.154 422.591 198.307C422.678 198.46 422.797 198.592 422.94 198.695C423.411 198.939 423.941 199.042 424.468 198.992H424.833L424.839 199.781L417.278 199.837L417.272 199.048L417.855 199.044C418.409 199.107 418.968 198.978 419.438 198.68C419.675 198.458 419.824 198.159 419.86 197.836C419.899 197.51 419.912 196.564 419.9 194.998L419.859 190.746C419.914 189.734 419.829 188.719 419.606 187.731C419.556 187.58 419.474 187.441 419.367 187.323C419.259 187.206 419.128 187.112 418.982 187.049C418.542 186.94 418.089 186.898 417.637 186.922H417.174L417.167 186.133C418.774 186.001 420.359 185.684 421.893 185.189L422.271 185.19ZM418.904 178.048C418.899 177.812 418.942 177.578 419.03 177.359C419.119 177.14 419.251 176.941 419.418 176.774C419.578 176.602 419.773 176.465 419.989 176.372C420.205 176.279 420.438 176.232 420.673 176.234C420.907 176.228 421.14 176.271 421.356 176.361C421.573 176.451 421.768 176.585 421.929 176.755C422.096 176.92 422.229 177.117 422.319 177.334C422.409 177.551 422.454 177.784 422.452 178.019C422.459 178.257 422.418 178.494 422.331 178.716C422.244 178.938 422.114 179.14 421.948 179.311C421.789 179.483 421.597 179.62 421.382 179.712C421.167 179.805 420.935 179.852 420.701 179.851C420.466 179.856 420.232 179.812 420.015 179.722C419.797 179.632 419.6 179.499 419.437 179.329C419.267 179.162 419.133 178.963 419.042 178.743C418.951 178.523 418.906 178.287 418.908 178.048H418.904Z" fill="#1C3554"/>
<path d="M429.729 185.133H430.192C430.406 185.885 430.51 186.664 430.501 187.446C431.16 186.713 431.956 186.115 432.844 185.687C434.093 185.122 435.486 184.955 436.833 185.209C438.18 185.463 439.416 186.125 440.373 187.106C441.718 188.573 442.429 190.512 442.351 192.501C442.431 194.514 441.751 196.483 440.447 198.018C439.817 198.749 439.033 199.33 438.15 199.719C437.268 200.108 436.309 200.295 435.345 200.267C434.487 200.276 433.636 200.104 432.848 199.764C432.006 199.392 431.238 198.873 430.581 198.229L430.621 203.561C430.603 204.55 430.642 205.54 430.738 206.525C430.764 206.69 430.826 206.847 430.921 206.984C431.015 207.122 431.14 207.236 431.284 207.319C431.811 207.534 432.382 207.621 432.949 207.572L432.955 208.361L425.618 208.412L425.611 207.623H426.126C426.68 207.685 427.238 207.557 427.709 207.259C427.947 207.037 428.096 206.738 428.131 206.415C428.169 206.09 428.182 205.145 428.17 203.578L428.074 190.823C428.063 189.327 428.036 188.384 427.992 187.995C427.98 187.819 427.93 187.649 427.844 187.496C427.758 187.343 427.64 187.21 427.497 187.108C427.027 186.864 426.496 186.761 425.969 186.811H425.456L425.448 186.022C426.896 185.836 428.327 185.539 429.729 185.133ZM430.574 197.094C431.118 197.779 431.789 198.353 432.549 198.785C433.219 199.157 433.973 199.349 434.738 199.343C435.39 199.332 436.031 199.175 436.614 198.883C437.197 198.591 437.707 198.172 438.106 197.656C439.058 196.539 439.525 194.769 439.506 192.347C439.623 190.657 439.117 188.983 438.082 187.642C437.676 187.158 437.168 186.769 436.594 186.504C436.02 186.238 435.394 186.103 434.762 186.108C433.974 186.113 433.2 186.326 432.52 186.725C431.737 187.199 431.054 187.821 430.508 188.556L430.574 197.094Z" fill="#1C3554"/>
<path d="M445.219 200.07L445.184 195.46L445.853 195.453C446.65 198.11 448.049 199.432 450.05 199.417C450.413 199.441 450.777 199.381 451.114 199.242C451.45 199.103 451.75 198.887 451.989 198.613C452.398 198.128 452.621 197.513 452.619 196.878C452.629 196.547 452.572 196.217 452.451 195.909C452.331 195.6 452.15 195.319 451.919 195.082C451.093 194.393 450.171 193.829 449.182 193.406C448.047 192.914 447.008 192.225 446.113 191.371C445.491 190.711 445.152 189.834 445.17 188.927C445.179 187.955 445.523 187.017 446.144 186.271C446.473 185.851 446.897 185.516 447.381 185.293C447.866 185.07 448.396 184.966 448.929 184.989C449.516 184.977 450.098 185.104 450.628 185.359C451.157 185.614 451.619 185.991 451.976 186.458C452.259 186.076 452.481 185.652 452.634 185.201H453.271L453.303 189.539L452.666 189.544C452.453 188.551 451.988 187.631 451.317 186.87C451.035 186.524 450.679 186.245 450.276 186.054C449.873 185.863 449.432 185.764 448.986 185.765C448.68 185.754 448.375 185.806 448.09 185.917C447.805 186.028 447.545 186.197 447.328 186.412C447.128 186.603 446.97 186.832 446.863 187.087C446.756 187.341 446.702 187.615 446.705 187.891C446.705 188.191 446.769 188.488 446.892 188.762C447.015 189.036 447.194 189.28 447.419 189.48C448.208 190.132 449.098 190.652 450.053 191.02C452.004 191.886 453.199 192.736 453.639 193.568C454.053 194.313 454.283 195.146 454.309 195.998C454.334 196.551 454.242 197.104 454.038 197.62C453.834 198.136 453.523 198.602 453.126 198.989C452.722 199.375 452.246 199.677 451.726 199.878C451.205 200.079 450.65 200.175 450.092 200.161C449.437 200.159 448.79 200.019 448.194 199.749C447.598 199.479 447.066 199.085 446.633 198.593C446.28 199.027 446.027 199.532 445.89 200.073L445.219 200.07Z" fill="#1C3554"/>
<path d="M470.656 185.391L470.725 194.598C470.736 196.129 470.766 197.089 470.816 197.476C470.83 197.651 470.883 197.82 470.972 197.971C471.061 198.122 471.183 198.251 471.329 198.348C471.818 198.58 472.36 198.677 472.899 198.627L472.905 199.416C471.614 199.377 470.326 199.572 469.104 199.992H468.898C468.444 198.97 468.236 197.856 468.291 196.739C467.697 197.732 466.886 198.577 465.917 199.209C465.027 199.764 463.998 200.056 462.948 200.053C462.077 200.077 461.216 199.862 460.458 199.431C459.807 199.084 459.283 198.538 458.963 197.872C458.643 196.978 458.499 196.031 458.539 195.082L458.503 190.299C458.519 189.306 458.483 188.313 458.395 187.324C458.373 187.158 458.312 187 458.217 186.862C458.122 186.724 457.996 186.611 457.849 186.532C457.317 186.324 456.744 186.24 456.175 186.287L456.169 185.498L460.934 185.462L461.008 195.2C460.989 195.903 461.053 196.605 461.196 197.293C461.343 197.766 461.657 198.168 462.078 198.427C462.559 198.752 463.13 198.918 463.711 198.903C464.622 198.884 465.503 198.574 466.225 198.018C466.918 197.555 467.477 196.918 467.848 196.172C468.173 195.286 468.315 194.342 468.265 193.399L468.241 190.228C468.23 188.697 468.206 187.765 468.168 187.433C468.13 187.101 467.972 186.795 467.724 186.571C467.246 186.27 466.679 186.144 466.118 186.214H465.754L465.749 185.425L470.656 185.391Z" fill="#1C3554"/>
<path d="M478.605 184.765H478.776C479.145 185.702 479.321 186.703 479.295 187.709C479.956 186.808 480.792 186.051 481.752 185.481C482.62 184.986 483.602 184.724 484.601 184.721C485.6 184.667 486.589 184.936 487.422 185.489C488.189 186.073 488.729 186.905 488.95 187.843C489.685 186.895 490.585 186.087 491.606 185.457C492.447 184.944 493.409 184.664 494.393 184.647C495.368 184.609 496.332 184.864 497.16 185.381C497.819 185.755 498.314 186.363 498.544 187.085C498.746 188.106 498.834 189.146 498.807 190.186L498.839 194.404C498.821 195.399 498.86 196.395 498.956 197.385C498.981 197.55 499.044 197.707 499.14 197.844C499.237 197.98 499.363 198.092 499.51 198.171C500.048 198.38 500.626 198.463 501.201 198.414L501.207 199.203L494.198 199.257L494.193 198.468C494.728 198.501 495.263 198.412 495.758 198.207C495.902 198.132 496.027 198.024 496.123 197.892C496.218 197.76 496.282 197.609 496.31 197.448C496.401 196.443 496.428 195.432 496.39 194.423L496.355 189.742C496.367 189.024 496.306 188.306 496.173 187.6C496.046 187.1 495.74 186.663 495.314 186.371C494.79 186.013 494.163 185.837 493.529 185.87C492.724 185.896 491.946 186.166 491.297 186.642C490.427 187.277 489.671 188.053 489.059 188.939L489.102 194.478C489.113 195.974 489.139 196.914 489.182 197.299C489.195 197.473 489.245 197.643 489.329 197.796C489.413 197.949 489.529 198.083 489.67 198.187C490.128 198.438 490.651 198.545 491.171 198.493L491.179 199.282L484.388 199.333L484.382 198.544C484.928 198.578 485.474 198.492 485.983 198.293C486.127 198.22 486.252 198.115 486.349 197.986C486.446 197.858 486.513 197.709 486.544 197.551C486.644 196.537 486.675 195.517 486.635 194.498L486.605 190.607C486.62 189.71 486.564 188.813 486.439 187.924C486.33 187.357 486.011 186.852 485.547 186.508C485.019 186.107 484.369 185.903 483.707 185.931C482.934 185.957 482.184 186.199 481.543 186.632C480.693 187.203 479.938 187.903 479.305 188.706L479.349 194.553C479.36 196.096 479.391 197.056 479.44 197.434C479.456 197.606 479.511 197.773 479.601 197.92C479.691 198.068 479.814 198.193 479.96 198.287C480.459 198.519 481.01 198.615 481.557 198.566L481.563 199.355L474.689 199.406L474.683 198.617C475.224 198.651 475.765 198.562 476.267 198.357C476.409 198.282 476.533 198.176 476.629 198.046C476.724 197.916 476.789 197.766 476.818 197.608C476.909 196.598 476.936 195.585 476.898 194.572L476.866 190.372C476.855 188.771 476.822 187.79 476.767 187.431C476.747 187.264 476.688 187.103 476.594 186.963C476.501 186.822 476.376 186.705 476.229 186.621C475.713 186.401 475.15 186.311 474.591 186.359L474.585 185.57C475.95 185.449 477.298 185.179 478.605 184.765Z" fill="#1C3554"/>
<path d="M488.423 168.79H455.343V135.711C464.116 135.711 472.53 139.196 478.733 145.4C484.937 151.603 488.423 160.017 488.423 168.79Z" fill="#1C3554"/>
<path d="M388.223 168.79H371.683V152.25C371.684 147.864 373.426 143.657 376.528 140.555C379.63 137.453 383.837 135.711 388.223 135.711C390.396 135.711 392.546 136.139 394.553 136.97C396.56 137.801 398.383 139.019 399.919 140.555C401.455 142.091 402.673 143.914 403.505 145.921C404.336 147.927 404.764 150.078 404.764 152.25C404.764 156.637 403.021 160.844 399.919 163.946C396.817 167.048 392.61 168.79 388.223 168.79Z" fill="#1C3554"/>
<path d="M446.649 168.79H413.568L413.457 135.6L436.154 158.295L446.649 168.79Z" fill="#1C3554"/>
</g>
<g opacity="0.7" clip-path="url(#clip5_202_3065)">
<path d="M61.993 177.803C62.7522 176.207 63.1274 174.456 63.0887 172.69C63.1751 170.97 62.7629 169.262 61.9016 167.772C61.1378 166.577 60.1101 165.574 58.8975 164.84C57.6777 164.107 56.3664 163.539 54.9977 163.15C53.6061 162.753 52.3059 162.357 51.0969 161.963C50.0291 161.634 49.0161 161.149 48.091 160.522C47.7035 160.25 47.3914 159.884 47.1838 159.459C46.9762 159.033 46.8799 158.562 46.904 158.089C46.8858 157.488 47.0598 156.896 47.4007 156.4C47.7374 155.931 48.18 155.547 48.6927 155.281C49.225 154.999 49.7933 154.79 50.382 154.661C50.9513 154.532 51.533 154.465 52.1169 154.462C53.1604 154.478 54.1936 154.671 55.1721 155.034C56.1752 155.366 57.0623 155.977 57.7288 156.797L63.0439 150.984C61.598 149.686 59.8854 148.72 58.0264 148.154C56.1579 147.589 54.2159 147.304 52.2639 147.309C50.5657 147.306 48.876 147.549 47.2473 148.03C45.6897 148.471 44.2287 149.201 42.9402 150.182C41.6982 151.143 40.681 152.363 39.9599 153.758C39.1881 155.299 38.8044 157.004 38.8422 158.727C38.7623 160.387 39.1863 162.033 40.0585 163.449C40.8522 164.623 41.8962 165.607 43.1155 166.33C44.3637 167.069 45.698 167.652 47.0884 168.065C48.5117 168.496 49.8363 168.926 51.0622 169.357C52.155 169.719 53.1857 170.247 54.1184 170.922C54.5106 171.209 54.8266 171.587 55.0386 172.025C55.2506 172.462 55.3523 172.945 55.3346 173.43C55.35 174.013 55.1858 174.587 54.8644 175.074C54.5429 175.543 54.1184 175.932 53.6235 176.212C53.0819 176.522 52.4971 176.748 51.8886 176.884C49.9835 177.33 47.9829 177.102 46.2274 176.238C45.0366 175.678 44.0018 174.833 43.2142 173.779L37.7 179.839C39.2729 181.325 41.132 182.474 43.1639 183.218C45.2081 183.929 47.3595 184.282 49.5237 184.262C51.2778 184.27 53.0246 184.036 54.7146 183.566C56.2795 183.14 57.7471 182.414 59.0363 181.43C60.2847 180.461 61.2959 179.221 61.993 177.803Z" fill="#1C3554"/>
<path d="M65.6179 155.05H75.6538V183.366H83.4024V155.05H93.4373V148.195H65.6179V155.05Z" fill="#1C3554"/>
<path d="M151.835 152.295C149.801 150.807 147.488 149.742 145.035 149.163C142.342 148.506 139.579 148.181 136.808 148.195H119.269V169.506C119.279 170.539 119.102 171.566 118.747 172.536C118.421 173.428 117.923 174.247 117.281 174.947C116.653 175.624 115.893 176.165 115.047 176.536C114.154 176.923 113.189 177.118 112.216 177.107C111.234 177.117 110.261 176.922 109.359 176.536C108.503 176.17 107.733 175.629 107.099 174.947C106.457 174.247 105.959 173.428 105.633 172.536C105.278 171.566 105.101 170.539 105.111 169.506V148.195H97.3608V169.804C97.3401 171.765 97.6595 173.715 98.305 175.567C98.904 177.273 99.8606 178.831 101.111 180.138C102.422 181.476 104.009 182.511 105.761 183.172C107.433 183.796 109.193 184.149 110.976 184.216L110.913 184.265H137.881C140.491 184.276 143.086 183.881 145.573 183.092C147.926 182.362 150.121 181.195 152.044 179.654C153.919 178.133 155.441 176.221 156.501 174.051C157.645 171.642 158.212 168.999 158.157 166.333C158.24 163.438 157.656 160.564 156.449 157.932C155.386 155.71 153.803 153.777 151.835 152.295ZM148.905 171.092C148.295 172.438 147.358 173.612 146.181 174.506C144.957 175.404 143.56 176.037 142.079 176.365C140.4 176.749 138.682 176.937 136.96 176.924H132.834V155.531H137.521C139.13 155.524 140.733 155.739 142.284 156.17C143.708 156.554 145.047 157.202 146.232 158.081C147.36 158.939 148.275 160.046 148.905 161.316C149.596 162.752 149.936 164.332 149.899 165.925C149.95 167.699 149.611 169.463 148.905 171.092Z" fill="#1C3554"/>
<path d="M169.896 148.195H162.145V183.366H169.896V148.195Z" fill="#1C3554"/>
<path d="M211.599 173.43C212.571 170.999 213.053 168.399 213.015 165.78C213.052 163.162 212.571 160.562 211.599 158.13C210.71 155.927 209.364 153.937 207.65 152.292C205.92 150.661 203.874 149.402 201.639 148.592C196.718 146.869 191.358 146.869 186.437 148.592C184.202 149.402 182.156 150.661 180.426 152.292C178.712 153.937 177.365 155.927 176.476 158.13C175.505 160.562 175.024 163.162 175.061 165.78C175.024 168.399 175.505 170.998 176.476 173.43C177.366 175.633 178.712 177.623 180.426 179.268C182.156 180.9 184.202 182.16 186.437 182.969C191.358 184.692 196.718 184.692 201.639 182.969C203.874 182.159 205.92 180.899 207.65 179.268C209.364 177.623 210.71 175.633 211.599 173.43ZM204.203 170.326C203.716 171.656 202.964 172.873 201.99 173.902C201.018 174.922 199.842 175.726 198.539 176.263C195.647 177.389 192.438 177.389 189.547 176.263C188.243 175.726 187.068 174.922 186.095 173.902C185.122 172.873 184.369 171.656 183.883 170.326C182.857 167.39 182.857 164.195 183.883 161.259C184.365 159.92 185.118 158.693 186.095 157.657C187.069 156.639 188.244 155.836 189.547 155.299C192.438 154.173 195.647 154.173 198.539 155.299C199.841 155.836 201.017 156.639 201.99 157.657C202.967 158.693 203.72 159.92 204.203 161.259C205.227 164.195 205.227 167.39 204.203 170.326Z" fill="#1C3554"/>
<path d="M37.7712 190.664H39.8038V196.399H41.3725V190.664H43.406V189.275H37.7712V190.664Z" fill="#1C3554"/>
<path d="M60.6124 189.275L57.5334 196.397H59.2629L59.8573 194.888H62.624L63.2376 196.397H65.009L61.9099 189.275H60.6124ZM60.3504 193.567L61.2151 191.352L62.0907 193.567H60.3504Z" fill="#1C3554"/>
<path d="M85.8969 194.226H85.8759L82.8481 189.275H80.7151V196.399H82.2847V191.328H82.3048L85.4139 196.399H87.4665V189.275H85.8969V194.226Z" fill="#1C3554"/>
<path d="M106.252 189.275L103.173 196.397H104.903L105.497 194.888H108.263L108.877 196.397H110.648L107.549 189.275H106.252ZM105.99 193.567L106.854 191.352L107.73 193.567H105.99Z" fill="#1C3554"/>
<path d="M130.973 191.932H127.924V189.275H126.354V196.399H127.924V193.32H130.973V196.399H132.543V189.275H130.973V191.932Z" fill="#1C3554"/>
<path d="M169.299 189.275L166.22 196.397H167.955L168.548 194.888H171.315L171.928 196.397H173.7L170.601 189.275H169.299ZM169.037 193.567L169.901 191.352L170.777 193.567H169.037Z" fill="#1C3554"/>
<path d="M190.951 189.275H189.38V196.399H190.951V189.275Z" fill="#1C3554"/>
<path d="M211.275 193.39C211.73 193.325 212.142 193.085 212.422 192.721C212.69 192.349 212.828 191.9 212.815 191.443C212.827 191.083 212.753 190.726 212.599 190.401C212.463 190.134 212.262 189.905 212.014 189.737C211.754 189.566 211.464 189.447 211.16 189.385C210.82 189.313 210.474 189.277 210.128 189.279H207.371V196.401H208.942V193.552H209.717L211.206 196.399H213.087L211.275 193.39ZM211.058 191.881C210.976 191.988 210.867 192.069 210.741 192.118C210.605 192.171 210.46 192.201 210.314 192.209C210.156 192.22 210.007 192.224 209.866 192.224H208.942V190.604H209.968C210.112 190.604 210.257 190.614 210.4 190.634C210.537 190.65 210.67 190.689 210.793 190.75C210.907 190.806 211.003 190.891 211.075 190.995C211.154 191.125 211.193 191.276 211.185 191.428C211.195 191.589 211.15 191.749 211.058 191.881Z" fill="#1C3554"/>
</g>
<path d="M349.904 48C349.552 48 349.248 47.888 348.992 47.664C348.768 47.44 348.656 47.152 348.656 46.8V22.224H340.208C339.856 22.224 339.552 22.112 339.296 21.888C339.072 21.664 338.96 21.376 338.96 21.024V15.648C338.96 15.296 339.072 15.008 339.296 14.784C339.552 14.528 339.856 14.4 340.208 14.4H366.272C366.624 14.4 366.912 14.528 367.136 14.784C367.392 15.008 367.52 15.296 367.52 15.648V21.024C367.52 21.376 367.392 21.664 367.136 21.888C366.912 22.112 366.624 22.224 366.272 22.224H357.824V46.8C357.824 47.152 357.696 47.44 357.44 47.664C357.216 47.888 356.928 48 356.576 48H349.904ZM370.061 48C369.741 48 369.453 47.888 369.197 47.664C368.973 47.408 368.861 47.12 368.861 46.8V24.288C368.861 23.936 368.973 23.648 369.197 23.424C369.421 23.168 369.709 23.04 370.061 23.04H375.917C376.269 23.04 376.557 23.168 376.781 23.424C377.037 23.648 377.165 23.936 377.165 24.288V26.112C378.061 25.12 379.101 24.368 380.285 23.856C381.501 23.312 382.845 23.04 384.317 23.04H386.477C386.829 23.04 387.117 23.152 387.341 23.376C387.565 23.6 387.677 23.888 387.677 24.24V29.472C387.677 29.792 387.565 30.08 387.341 30.336C387.117 30.56 386.829 30.672 386.477 30.672H381.629C380.349 30.672 379.357 31.024 378.653 31.728C377.981 32.432 377.645 33.424 377.645 34.704V46.8C377.645 47.152 377.517 47.44 377.261 47.664C377.037 47.888 376.749 48 376.397 48H370.061ZM400.154 48.48C397.338 48.48 395.066 47.536 393.338 45.648C391.61 43.76 390.746 41.088 390.746 37.632V24.24C390.746 23.888 390.858 23.6 391.082 23.376C391.338 23.152 391.626 23.04 391.946 23.04H398.33C398.682 23.04 398.97 23.152 399.194 23.376C399.45 23.6 399.578 23.888 399.578 24.24V37.344C399.578 40.32 400.906 41.808 403.562 41.808C404.842 41.808 405.834 41.424 406.538 40.656C407.274 39.856 407.642 38.752 407.642 37.344V24.24C407.642 23.888 407.754 23.6 407.978 23.376C408.234 23.152 408.538 23.04 408.89 23.04H415.226C415.578 23.04 415.866 23.152 416.09 23.376C416.314 23.6 416.426 23.888 416.426 24.24V46.8C416.426 47.12 416.314 47.408 416.09 47.664C415.866 47.888 415.578 48 415.226 48H409.37C409.018 48 408.714 47.888 408.458 47.664C408.234 47.44 408.122 47.152 408.122 46.8V44.976C406.458 47.312 403.802 48.48 400.154 48.48ZM432.341 48.48C429.717 48.48 427.525 48.112 425.765 47.376C424.005 46.64 422.693 45.76 421.829 44.736C420.997 43.712 420.581 42.784 420.581 41.952C420.581 41.632 420.693 41.376 420.917 41.184C421.173 40.96 421.445 40.848 421.733 40.848H427.541C427.733 40.848 427.893 40.912 428.021 41.04C428.565 41.392 428.869 41.6 428.933 41.664C429.541 42.112 430.101 42.464 430.613 42.72C431.157 42.944 431.797 43.056 432.533 43.056C433.397 43.056 434.101 42.896 434.645 42.576C435.221 42.224 435.509 41.744 435.509 41.136C435.509 40.624 435.349 40.208 435.029 39.888C434.741 39.568 434.165 39.264 433.301 38.976C432.469 38.656 431.189 38.336 429.461 38.016C423.925 36.896 421.157 34.336 421.157 30.336C421.157 29.024 421.573 27.776 422.405 26.592C423.269 25.376 424.517 24.4 426.149 23.664C427.813 22.928 429.797 22.56 432.101 22.56C434.437 22.56 436.453 22.928 438.149 23.664C439.877 24.368 441.189 25.232 442.085 26.256C442.981 27.248 443.429 28.16 443.429 28.992C443.429 29.28 443.317 29.536 443.093 29.76C442.901 29.984 442.661 30.096 442.373 30.096H437.093C436.805 30.096 436.581 30.032 436.421 29.904C436.037 29.712 435.653 29.472 435.269 29.184C434.693 28.8 434.181 28.512 433.733 28.32C433.317 28.096 432.773 27.984 432.101 27.984C431.301 27.984 430.677 28.16 430.229 28.512C429.781 28.864 429.557 29.312 429.557 29.856C429.557 30.336 429.685 30.736 429.941 31.056C430.229 31.344 430.789 31.632 431.621 31.92C432.485 32.208 433.781 32.512 435.509 32.832C438.645 33.376 440.917 34.352 442.325 35.76C443.765 37.136 444.485 38.752 444.485 40.608C444.485 43.008 443.413 44.928 441.269 46.368C439.157 47.776 436.181 48.48 432.341 48.48ZM461.559 48C454.775 48 451.383 44.816 451.383 38.448V29.568H447.591C447.271 29.568 446.983 29.456 446.727 29.232C446.503 28.976 446.391 28.688 446.391 28.368V24.24C446.391 23.888 446.503 23.6 446.727 23.376C446.983 23.152 447.271 23.04 447.591 23.04H451.383V15.12C451.383 14.768 451.495 14.48 451.719 14.256C451.975 14.032 452.263 13.92 452.583 13.92H458.487C458.839 13.92 459.127 14.032 459.351 14.256C459.575 14.48 459.687 14.768 459.687 15.12V23.04H465.687C466.039 23.04 466.327 23.152 466.551 23.376C466.807 23.6 466.935 23.888 466.935 24.24V28.368C466.935 28.72 466.807 29.008 466.551 29.232C466.327 29.456 466.039 29.568 465.687 29.568H459.687V37.728C459.687 38.848 459.895 39.696 460.311 40.272C460.727 40.848 461.399 41.136 462.327 41.136H466.119C466.471 41.136 466.759 41.264 466.983 41.52C467.207 41.744 467.319 42.032 467.319 42.384V46.8C467.319 47.12 467.207 47.408 466.983 47.664C466.759 47.888 466.471 48 466.119 48H461.559ZM482.901 48.48C478.997 48.48 475.925 47.44 473.685 45.36C471.445 43.248 470.293 40.192 470.229 36.192V34.704C470.357 30.896 471.541 27.92 473.781 25.776C476.021 23.632 479.045 22.56 482.853 22.56C485.605 22.56 487.925 23.12 489.813 24.24C491.733 25.328 493.157 26.848 494.085 28.8C495.045 30.72 495.525 32.912 495.525 35.376V36.576C495.525 36.928 495.397 37.232 495.141 37.488C494.917 37.712 494.629 37.824 494.277 37.824H479.061V38.112C479.093 39.552 479.429 40.72 480.069 41.616C480.709 42.48 481.621 42.912 482.805 42.912C483.573 42.912 484.181 42.768 484.629 42.48C485.109 42.16 485.557 41.76 485.973 41.28C486.261 40.96 486.485 40.768 486.645 40.704C486.837 40.608 487.125 40.56 487.509 40.56H493.797C494.085 40.56 494.325 40.656 494.517 40.848C494.741 41.008 494.853 41.216 494.853 41.472C494.853 42.304 494.373 43.28 493.413 44.4C492.485 45.52 491.109 46.48 489.285 47.28C487.493 48.08 485.365 48.48 482.901 48.48ZM486.693 32.928V32.832C486.693 31.296 486.357 30.112 485.685 29.28C485.013 28.416 484.069 27.984 482.853 27.984C481.637 27.984 480.693 28.416 480.021 29.28C479.381 30.112 479.061 31.296 479.061 32.832V32.928H486.693ZM509.19 48.48C506.086 48.48 503.638 47.504 501.846 45.552C500.086 43.6 499.142 40.816 499.014 37.2L498.966 35.52L499.014 33.792C499.142 30.304 500.102 27.568 501.894 25.584C503.686 23.568 506.118 22.56 509.19 22.56C512.07 22.56 514.39 23.488 516.15 25.344V15.12C516.15 14.768 516.262 14.48 516.486 14.256C516.742 14.032 517.03 13.92 517.35 13.92H523.542C523.894 13.92 524.182 14.032 524.406 14.256C524.662 14.48 524.79 14.768 524.79 15.12V46.8C524.79 47.152 524.662 47.44 524.406 47.664C524.182 47.888 523.894 48 523.542 48H517.83C517.51 48 517.222 47.888 516.966 47.664C516.742 47.408 516.63 47.12 516.63 46.8V45.312C514.902 47.424 512.422 48.48 509.19 48.48ZM511.974 41.808C513.35 41.808 514.374 41.376 515.046 40.512C515.718 39.616 516.086 38.496 516.15 37.152C516.214 36.256 516.246 35.648 516.246 35.328C516.246 34.976 516.214 34.384 516.15 33.552C516.086 32.304 515.702 31.28 514.998 30.48C514.326 29.648 513.318 29.232 511.974 29.232C510.534 29.232 509.494 29.664 508.854 30.528C508.246 31.36 507.894 32.528 507.798 34.032L507.75 35.52L507.798 37.008C507.894 38.512 508.246 39.696 508.854 40.56C509.494 41.392 510.534 41.808 511.974 41.808ZM555.93 48.48C552.698 48.48 550.218 47.424 548.49 45.312V46.8C548.49 47.12 548.378 47.408 548.154 47.664C547.93 47.888 547.642 48 547.29 48H541.578C541.226 48 540.922 47.888 540.666 47.664C540.442 47.44 540.33 47.152 540.33 46.8V15.12C540.33 14.768 540.442 14.48 540.666 14.256C540.922 14.032 541.226 13.92 541.578 13.92H547.77C548.122 13.92 548.41 14.032 548.634 14.256C548.858 14.48 548.97 14.768 548.97 15.12V25.344C550.73 23.488 553.05 22.56 555.93 22.56C559.002 22.56 561.434 23.568 563.226 25.584C565.018 27.568 565.978 30.304 566.106 33.792C566.138 34.208 566.154 34.784 566.154 35.52C566.154 36.224 566.138 36.784 566.106 37.2C565.978 40.816 565.018 43.6 563.226 45.552C561.466 47.504 559.034 48.48 555.93 48.48ZM553.146 41.808C554.586 41.808 555.61 41.392 556.218 40.56C556.858 39.696 557.226 38.512 557.322 37.008C557.354 36.688 557.37 36.192 557.37 35.52C557.37 34.848 557.354 34.352 557.322 34.032C557.226 32.528 556.858 31.36 556.218 30.528C555.61 29.664 554.586 29.232 553.146 29.232C551.802 29.232 550.778 29.648 550.074 30.48C549.402 31.28 549.034 32.304 548.97 33.552C548.938 33.968 548.922 34.56 548.922 35.328C548.922 36.096 548.938 36.704 548.97 37.152C549.034 38.496 549.402 39.616 550.074 40.512C550.746 41.376 551.77 41.808 553.146 41.808ZM574.378 57.12C574.09 57.12 573.85 57.024 573.658 56.832C573.466 56.64 573.37 56.4 573.37 56.112C573.37 55.888 573.402 55.68 573.466 55.488L577.258 46.464L568.042 24.672C567.946 24.416 567.898 24.24 567.898 24.144C567.962 23.824 568.09 23.568 568.282 23.376C568.506 23.152 568.762 23.04 569.05 23.04H574.762C575.434 23.04 575.898 23.376 576.154 24.048L581.482 37.68L586.954 24.048C587.274 23.376 587.754 23.04 588.394 23.04H594.057C594.345 23.04 594.586 23.152 594.778 23.376C595.002 23.568 595.114 23.792 595.114 24.048C595.114 24.272 595.082 24.48 595.018 24.672L581.434 56.112C581.114 56.784 580.618 57.12 579.946 57.12H574.378ZM621.809 48.48C617.233 48.48 613.633 47.376 611.009 45.168C608.417 42.96 607.041 39.728 606.881 35.472C606.849 34.608 606.833 33.2 606.833 31.248C606.833 29.264 606.849 27.824 606.881 26.928C607.041 22.768 608.433 19.568 611.057 17.328C613.713 15.056 617.297 13.92 621.809 13.92C624.657 13.92 627.201 14.384 629.441 15.312C631.713 16.24 633.505 17.584 634.817 19.344C636.129 21.104 636.817 23.184 636.881 25.584C636.881 25.872 636.769 26.112 636.545 26.304C636.353 26.496 636.113 26.592 635.825 26.592H629.009C628.561 26.592 628.225 26.512 628.001 26.352C627.809 26.16 627.633 25.824 627.473 25.344C627.025 23.776 626.337 22.688 625.409 22.08C624.513 21.44 623.313 21.12 621.809 21.12C618.193 21.12 616.321 23.136 616.193 27.168C616.161 28.032 616.145 29.36 616.145 31.152C616.145 32.944 616.161 34.304 616.193 35.232C616.321 39.264 618.193 41.28 621.809 41.28C623.281 41.28 624.481 40.96 625.409 40.32C626.369 39.68 627.057 38.592 627.473 37.056C627.601 36.576 627.777 36.256 628.001 36.096C628.225 35.904 628.561 35.808 629.009 35.808H635.825C636.113 35.808 636.353 35.904 636.545 36.096C636.769 36.288 636.881 36.528 636.881 36.816C636.817 39.216 636.129 41.296 634.817 43.056C633.505 44.816 631.713 46.16 629.441 47.088C627.201 48.016 624.657 48.48 621.809 48.48ZM653.252 48.48C649.22 48.48 646.116 47.552 643.94 45.696C641.796 43.808 640.628 41.136 640.436 37.68C640.404 37.264 640.388 36.544 640.388 35.52C640.388 34.496 640.404 33.776 640.436 33.36C640.628 29.968 641.828 27.328 644.036 25.44C646.276 23.52 649.348 22.56 653.252 22.56C657.156 22.56 660.212 23.52 662.42 25.44C664.66 27.328 665.876 29.968 666.068 33.36C666.132 34.192 666.164 34.912 666.164 35.52C666.164 36.128 666.132 36.848 666.068 37.68C665.876 41.136 664.692 43.808 662.516 45.696C660.372 47.552 657.284 48.48 653.252 48.48ZM653.252 42.432C654.564 42.432 655.54 42.032 656.18 41.232C656.82 40.4 657.188 39.136 657.284 37.44C657.316 37.12 657.332 36.48 657.332 35.52C657.332 34.56 657.316 33.92 657.284 33.6C657.188 31.936 656.82 30.688 656.18 29.856C655.54 29.024 654.564 28.608 653.252 28.608C651.94 28.608 650.964 29.024 650.324 29.856C649.684 30.688 649.316 31.936 649.22 33.6L649.172 35.52L649.22 37.44C649.316 39.136 649.684 40.4 650.324 41.232C650.964 42.032 651.94 42.432 653.252 42.432ZM671.936 48C671.616 48 671.328 47.888 671.072 47.664C670.848 47.408 670.736 47.12 670.736 46.8V24.24C670.736 23.888 670.848 23.6 671.072 23.376C671.328 23.152 671.616 23.04 671.936 23.04H677.504C677.856 23.04 678.144 23.152 678.368 23.376C678.592 23.6 678.704 23.888 678.704 24.24V25.872C679.472 24.944 680.464 24.16 681.68 23.52C682.896 22.88 684.272 22.56 685.808 22.56C689.328 22.56 691.744 23.936 693.056 26.688C693.824 25.472 694.896 24.48 696.272 23.712C697.648 22.944 699.12 22.56 700.688 22.56C703.312 22.56 705.44 23.456 707.072 25.248C708.736 27.008 709.568 29.648 709.568 33.168V46.8C709.568 47.12 709.456 47.408 709.232 47.664C709.008 47.888 708.72 48 708.368 48H702.464C702.112 48 701.808 47.888 701.552 47.664C701.328 47.44 701.216 47.152 701.216 46.8V33.504C701.216 32.032 700.896 30.96 700.256 30.288C699.648 29.584 698.816 29.232 697.76 29.232C696.768 29.232 695.952 29.584 695.312 30.288C694.704 30.96 694.4 32.032 694.4 33.504V46.8C694.4 47.12 694.288 47.408 694.064 47.664C693.84 47.888 693.552 48 693.2 48H687.296C686.944 48 686.64 47.888 686.384 47.664C686.16 47.44 686.048 47.152 686.048 46.8V33.504C686.048 32.032 685.728 30.96 685.088 30.288C684.448 29.584 683.616 29.232 682.592 29.232C681.6 29.232 680.784 29.584 680.144 30.288C679.504 30.96 679.184 32.016 679.184 33.456V46.8C679.184 47.12 679.072 47.408 678.848 47.664C678.624 47.888 678.336 48 677.984 48H671.936ZM716.047 57.12C715.695 57.12 715.391 57.008 715.135 56.784C714.911 56.56 714.799 56.272 714.799 55.92V24.24C714.799 23.888 714.911 23.6 715.135 23.376C715.391 23.152 715.695 23.04 716.047 23.04H721.759C722.111 23.04 722.399 23.152 722.623 23.376C722.847 23.6 722.959 23.888 722.959 24.24V25.968C724.687 23.696 727.167 22.56 730.399 22.56C733.503 22.56 735.935 23.536 737.695 25.488C739.487 27.408 740.447 30.16 740.575 33.744C740.607 34.16 740.623 34.752 740.623 35.52C740.623 36.288 740.607 36.896 740.575 37.344C740.447 40.8 739.487 43.52 737.695 45.504C735.903 47.488 733.471 48.48 730.399 48.48C727.295 48.48 724.975 47.424 723.439 45.312V55.92C723.439 56.272 723.327 56.56 723.103 56.784C722.879 57.008 722.591 57.12 722.239 57.12H716.047ZM727.615 41.808C729.055 41.808 730.079 41.392 730.687 40.56C731.327 39.696 731.695 38.512 731.791 37.008C731.823 36.688 731.839 36.192 731.839 35.52C731.839 34.848 731.823 34.352 731.791 34.032C731.695 32.528 731.327 31.36 730.687 30.528C730.079 29.664 729.055 29.232 727.615 29.232C726.239 29.232 725.215 29.68 724.543 30.576C723.871 31.44 723.503 32.544 723.439 33.888C723.407 34.304 723.391 34.912 723.391 35.712C723.391 36.48 723.407 37.072 723.439 37.488C723.503 38.736 723.871 39.776 724.543 40.608C725.247 41.408 726.271 41.808 727.615 41.808ZM752.756 48.48C751.06 48.48 749.508 48.16 748.1 47.52C746.724 46.848 745.636 45.936 744.836 44.784C744.068 43.632 743.684 42.368 743.684 40.992C743.684 38.816 744.58 37.056 746.372 35.712C748.196 34.336 750.692 33.392 753.86 32.88L759.812 31.968V31.392C759.812 30.208 759.572 29.344 759.092 28.8C758.612 28.256 757.796 27.984 756.644 27.984C756.004 27.984 755.46 28.096 755.012 28.32C754.596 28.544 754.116 28.88 753.572 29.328C753.156 29.68 752.788 29.936 752.468 30.096C752.34 30.32 752.18 30.432 751.988 30.432H746.42C746.1 30.432 745.828 30.336 745.604 30.144C745.412 29.92 745.332 29.664 745.364 29.376C745.396 28.512 745.828 27.552 746.66 26.496C747.492 25.408 748.756 24.48 750.452 23.712C752.148 22.944 754.244 22.56 756.74 22.56C760.708 22.56 763.652 23.44 765.572 25.2C767.492 26.928 768.452 29.28 768.452 32.256V46.8C768.452 47.12 768.34 47.408 768.116 47.664C767.892 47.888 767.604 48 767.252 48H761.348C761.028 48 760.74 47.888 760.484 47.664C760.26 47.408 760.148 47.12 760.148 46.8V45.12C759.444 46.112 758.468 46.928 757.22 47.568C755.972 48.176 754.484 48.48 752.756 48.48ZM755.156 42.816C756.564 42.816 757.7 42.352 758.564 41.424C759.46 40.496 759.908 39.152 759.908 37.392V36.816L755.924 37.488C753.236 38 751.892 38.96 751.892 40.368C751.892 41.104 752.196 41.696 752.804 42.144C753.444 42.592 754.228 42.816 755.156 42.816ZM774.874 48C774.554 48 774.266 47.888 774.01 47.664C773.786 47.408 773.674 47.12 773.674 46.8V24.24C773.674 23.888 773.786 23.6 774.01 23.376C774.266 23.152 774.554 23.04 774.874 23.04H780.778C781.13 23.04 781.418 23.152 781.642 23.376C781.866 23.6 781.978 23.888 781.978 24.24V26.064C782.842 25.008 783.946 24.16 785.29 23.52C786.666 22.88 788.234 22.56 789.994 22.56C791.818 22.56 793.434 22.976 794.842 23.808C796.282 24.64 797.402 25.872 798.202 27.504C799.034 29.136 799.45 31.104 799.45 33.408V46.8C799.45 47.12 799.338 47.408 799.114 47.664C798.89 47.888 798.602 48 798.25 48H791.866C791.514 48 791.21 47.888 790.954 47.664C790.73 47.44 790.618 47.152 790.618 46.8V33.696C790.618 32.256 790.266 31.152 789.562 30.384C788.89 29.616 787.898 29.232 786.586 29.232C785.306 29.232 784.298 29.632 783.562 30.432C782.826 31.2 782.458 32.288 782.458 33.696V46.8C782.458 47.12 782.346 47.408 782.122 47.664C781.898 47.888 781.61 48 781.258 48H774.874ZM808.518 57.12C808.23 57.12 807.99 57.024 807.798 56.832C807.606 56.64 807.51 56.4 807.51 56.112C807.51 55.888 807.542 55.68 807.606 55.488L811.398 46.464L802.182 24.672C802.086 24.416 802.038 24.24 802.038 24.144C802.102 23.824 802.23 23.568 802.422 23.376C802.646 23.152 802.902 23.04 803.19 23.04H808.902C809.574 23.04 810.038 23.376 810.294 24.048L815.622 37.68L821.094 24.048C821.414 23.376 821.894 23.04 822.534 23.04H828.198C828.486 23.04 828.726 23.152 828.918 23.376C829.142 23.568 829.254 23.792 829.254 24.048C829.254 24.272 829.222 24.48 829.158 24.672L815.574 56.112C815.254 56.784 814.758 57.12 814.086 57.12H808.518Z" fill="#1C3554"/>
<defs>
<clipPath id="clip0_202_3065">
<rect width="249.6" height="104" fill="white" transform="translate(614.6 256)"/>
</clipPath>
<clipPath id="clip1_202_3065">
<rect width="249.6" height="104" fill="white" transform="translate(309 256)"/>
</clipPath>
<clipPath id="clip2_202_3065">
<rect width="249.6" height="104" fill="white" transform="translate(916.8 120)"/>
</clipPath>
<clipPath id="clip3_202_3065">
<rect width="249.6" height="104" fill="white" transform="translate(611.2 120)"/>
</clipPath>
<clipPath id="clip4_202_3065">
<rect width="249.6" height="104" fill="white" transform="translate(305.6 120)"/>
</clipPath>
<clipPath id="clip5_202_3065">
<rect width="249.6" height="104" fill="white" transform="translate(0 120)"/>
</clipPath>
</defs>
</svg>
